<svg width="24" height="25" viewBox="0 0 24 25" fill="none" xmlns="http://www.w3.org/2000/svg">
<path d="M4.10557 18.3598L3.31176 17.7517L3.31176 17.7517L4.10557 18.3598ZM5.26855 15.0902L4.26855 15.0778V15.0902H5.26855ZM5.29296 13.1133L6.29296 13.1257V13.1133H5.29296ZM19.9006 18.3757L20.7065 17.7836L20.7065 17.7836L19.9006 18.3757ZM18.7814 15.0902L17.7814 15.0772V15.0902H18.7814ZM18.8058 13.2113L19.8058 13.2243V13.2113H18.8058ZM4.89939 18.968C5.58054 18.0789 6.26855 16.7376 6.26855 15.0902H4.26855C4.26855 16.1714 3.81418 17.0959 3.31176 17.7517L4.89939 18.968ZM6.26848 15.1025L6.29289 13.1257L4.29304 13.101L4.26863 15.0778L6.26848 15.1025ZM20.7065 17.7836C20.2257 17.1292 19.7814 16.193 19.7814 15.0902H17.7814C17.7814 16.7347 18.4401 18.0767 19.0948 18.9678L20.7065 17.7836ZM19.7813 15.1032L19.8057 13.2243L17.8059 13.1983L17.7815 15.0772L19.7813 15.1032ZM19.8058 13.2113C19.8058 8.92402 16.303 5.46297 12 5.46297V7.46297C15.2145 7.46297 17.8058 10.0446 17.8058 13.2113H19.8058ZM19.4933 20.2919C20.2194 20.2919 20.6784 19.7858 20.864 19.3534C21.0482 18.9243 21.0878 18.3027 20.7065 17.7836L19.0947 18.9678C18.9586 18.7825 19.0028 18.6189 19.0262 18.5645C19.051 18.5067 19.1836 18.2919 19.4933 18.2919V20.2919ZM6.29296 13.1133C6.29296 10.0007 8.84007 7.46297 12 7.46297V5.46297C7.75154 5.46297 4.29296 8.88016 4.29296 13.1133H6.29296ZM4.50763 18.2919C4.82438 18.2919 4.95436 18.5143 4.97604 18.5663C4.99661 18.6157 5.04246 18.7813 4.89939 18.968L3.31176 17.7517C2.91365 18.2713 2.94973 18.9029 3.12969 19.3351C3.31075 19.7699 3.76928 20.2919 4.50763 20.2919V18.2919ZM19.4933 18.2919H4.50763V20.2919H19.4933V18.2919ZM14.2 19.2919C14.2 20.3029 13.2897 21.2524 12 21.2524V23.2524C14.2449 23.2524 16.2 21.5511 16.2 19.2919H14.2ZM12 21.2524C10.7103 21.2524 9.8 20.3029 9.8 19.2919H7.8C7.8 21.5511 9.75506 23.2524 12 23.2524V21.2524ZM13.1333 4.3577C13.1333 4.95568 12.6385 5.46297 12 5.46297V7.46297C13.718 7.46297 15.1333 6.08514 15.1333 4.3577H13.1333ZM12 5.46297C11.3615 5.46297 10.8667 4.95568 10.8667 4.3577H8.86667C8.86667 6.08514 10.282 7.46297 12 7.46297V5.46297ZM10.8667 4.3577C10.8667 3.75973 11.3615 3.25244 12 3.25244V1.25244C10.282 1.25244 8.86667 2.63027 8.86667 4.3577H10.8667ZM12 3.25244C12.6385 3.25244 13.1333 3.75973 13.1333 4.3577H15.1333C15.1333 2.63027 13.718 1.25244 12 1.25244V3.25244Z" fill="white"/>
</svg>
