<svg width="23" height="23" viewBox="0 0 23 23" fill="none" xmlns="http://www.w3.org/2000/svg">
<path d="M10.636 3.64521H5.18648C3.38066 3.64521 1.91675 5.10907 1.91675 6.91484V17.8137C1.91675 19.6195 3.38066 21.0833 5.18648 21.0833H16.0856C17.8914 21.0833 19.3553 19.6195 19.3553 17.8137L19.3553 12.3643M7.36631 15.6339L11.3318 14.8349C11.5423 14.7924 11.7356 14.6888 11.8874 14.5369L20.7644 5.65529C21.19 5.22946 21.1897 4.53921 20.7638 4.11374L18.8833 2.23545C18.4575 1.81016 17.7676 1.81045 17.3421 2.2361L8.46418 11.1186C8.31267 11.2702 8.20921 11.4631 8.16676 11.6732L7.36631 15.6339Z" stroke="#FFFF00" stroke-width="2" stroke-linecap="round" stroke-linejoin="round"/>
</svg>
