<svg width="24" height="24" viewBox="0 0 24 24" fill="none" xmlns="http://www.w3.org/2000/svg">
<path d="M18.4475 18.2539L17.939 17.3928L18.4475 18.2539ZM18.939 17.3928H17.939H18.939ZM10.9657 21.4035L10.4292 22.2475L10.9657 21.4035ZM13.0555 21.4378L13.564 22.2989L13.0555 21.4378ZM1.90419 8.1368L1.39226 7.27777L1.90419 8.1368ZM1.90419 8.99583L1.39226 9.85486L1.90419 8.99583ZM12.512 14.7073L13.024 15.5663L12.512 14.7073ZM11.4882 14.7073L12.0001 13.8483L11.4882 14.7073ZM22.096 8.1368L22.6079 7.27777L22.096 8.1368ZM22.096 8.99583L21.5841 8.1368L22.096 8.99583ZM6.01768 18.2583L6.55413 17.4144L6.01768 18.2583ZM12.512 2.42533L12.0001 3.28436L12.512 2.42533ZM11.4882 2.42533L12.0001 3.28436L11.4882 2.42533ZM23.2001 8.54967C23.2001 7.99739 22.7524 7.54967 22.2001 7.54967C21.6478 7.54967 21.2001 7.99739 21.2001 8.54967H23.2001ZM21.2001 13.9497C21.2001 14.502 21.6478 14.9497 22.2001 14.9497C22.7524 14.9497 23.2001 14.502 23.2001 13.9497H21.2001ZM12.0001 3.28436L21.5841 8.99583L22.6079 7.27777L13.024 1.56631L12.0001 3.28436ZM21.5841 8.1368L12.0001 13.8483L13.024 15.5663L22.6079 9.85486L21.5841 8.1368ZM2.41612 8.99583L12.0001 3.28436L10.9762 1.56631L1.39226 7.27777L2.41612 8.99583ZM12.0001 13.8483L6.06606 10.3119L5.0422 12.03L10.9762 15.5663L12.0001 13.8483ZM6.06606 10.3119L2.41612 8.1368L1.39226 9.85486L5.0422 12.03L6.06606 10.3119ZM4.55413 11.171V17.4144H6.55413V11.171H4.55413ZM5.48123 19.1022L10.4292 22.2475L11.5021 20.5596L6.55413 17.4144L5.48123 19.1022ZM13.564 22.2989L18.956 19.115L17.939 17.3928L12.5471 20.5767L13.564 22.2989ZM19.939 17.3928L19.939 11.171H17.939L17.939 17.3928H19.939ZM18.956 19.115C19.5652 18.7552 19.939 18.1003 19.939 17.3928H17.939L18.956 19.115ZM10.4292 22.2475C11.3814 22.8527 12.5925 22.8726 13.564 22.2989L12.5471 20.5767C12.2232 20.768 11.8195 20.7613 11.5021 20.5596L10.4292 22.2475ZM1.39226 7.27777C0.416118 7.8595 0.416123 9.27314 1.39226 9.85486L2.41612 8.1368C2.7415 8.33071 2.7415 8.80192 2.41612 8.99583L1.39226 7.27777ZM12.0001 13.8483L12.0001 13.8483L10.9762 15.5663C11.6071 15.9422 12.3931 15.9422 13.024 15.5663L12.0001 13.8483ZM21.5841 8.99583C21.2587 8.80192 21.2587 8.33071 21.5841 8.1368L22.6079 9.85486C23.5841 9.27314 23.5841 7.8595 22.6079 7.27777L21.5841 8.99583ZM4.55413 17.4144C4.55413 18.0985 4.90384 18.7352 5.48123 19.1022L6.55413 17.4144V17.4144H4.55413ZM13.024 1.56631C12.3931 1.19038 11.6071 1.19038 10.9762 1.56631L12.0001 3.28436L12.0001 3.28436L13.024 1.56631ZM21.2001 8.54967V13.9497H23.2001V8.54967H21.2001Z" fill="white"/>
</svg>
