<svg width="24" height="25" viewBox="0 0 24 25" fill="none" xmlns="http://www.w3.org/2000/svg">
<path d="M7.37851 10.443L5.14505 12.6764C4.31092 13.5106 3.83124 14.6455 3.84001 15.8383C3.84877 17.0312 4.31796 18.173 5.19167 19.0198C6.03836 19.8935 7.18048 20.3627 8.3731 20.3714C9.59293 20.3804 10.701 19.9278 11.5352 19.0936L13.7687 16.8601M16.6215 14.0619L18.8549 11.8284C19.6891 10.9943 20.1688 9.85934 20.16 8.66653C20.1512 7.47371 19.682 6.33183 18.8083 5.48509C17.9618 4.63861 16.8199 4.1694 15.6271 4.16063C14.4343 4.15187 13.2992 4.60432 12.465 5.43848L10.2315 7.67193M8.6131 15.5796L15.3135 8.87924" stroke="white" stroke-width="2" stroke-linecap="round" stroke-linejoin="round"/>
</svg>
