<svg width="24" height="24" viewBox="0 0 24 24" fill="none" xmlns="http://www.w3.org/2000/svg">
<path d="M20.533 18.7403C20.533 18.7403 19.3743 19.8783 19.0904 20.2119C18.6278 20.7055 18.0828 20.9386 17.3684 20.9386C17.2997 20.9386 17.2264 20.9386 17.1577 20.934C15.7975 20.8472 14.5336 20.317 13.5856 19.8646C10.9934 18.6123 8.71734 16.8344 6.82592 14.5812C5.26424 12.7028 4.22007 10.9661 3.52854 9.1014C3.10263 7.96339 2.94692 7.07674 3.01561 6.24037C3.06141 5.70564 3.26749 5.26232 3.64761 4.88298L5.20929 3.32449C5.43369 3.11426 5.67184 3 5.9054 3C6.19392 3 6.42749 3.17367 6.57404 3.31992C6.57862 3.32449 6.5832 3.32906 6.58778 3.33364C6.86714 3.59414 7.13276 3.86379 7.41212 4.15173C7.55409 4.29798 7.70064 4.44423 7.84719 4.59505L9.09745 5.84275C9.5829 6.32721 9.5829 6.7751 9.09745 7.25956C8.96464 7.3921 8.83641 7.52464 8.7036 7.65261C8.3189 8.04565 8.6211 7.74407 8.22267 8.10056C8.21351 8.1097 8.20435 8.11427 8.19977 8.12341C7.80591 8.51646 7.87919 8.90037 7.96162 9.16088C7.9662 9.17459 7.97078 9.1883 7.97536 9.20201C8.30052 9.98811 8.75849 10.7285 9.45461 11.6106L9.45919 11.6151C10.7232 13.1691 12.0559 14.3802 13.526 15.308C13.7137 15.4268 13.9061 15.5228 14.0893 15.6142C14.2541 15.6965 14.4098 15.7742 14.5426 15.8564C14.561 15.8656 14.5793 15.8793 14.5976 15.8884C14.7533 15.9661 14.8999 16.0027 15.051 16.0027C15.4311 16.0027 15.6693 15.765 15.7471 15.6873L16.6448 14.7915C16.8005 14.6361 17.0478 14.4487 17.3363 14.4487C17.6203 14.4487 17.8538 14.6269 17.9958 14.7823C18.0004 14.7869 18.0004 14.7869 18.005 14.7915L20.5284 17.3097C21.0001 17.7759 20.533 18.7403 20.533 18.7403Z" stroke="white" stroke-width="2" stroke-linecap="round" stroke-linejoin="round"/>
</svg>
