<svg width="579" height="576" viewBox="0 0 579 576" fill="none" xmlns="http://www.w3.org/2000/svg">
<path d="M382.146 321.65H381.973H382.146ZM140.414 405.55C141.514 405.723 147.535 406.011 147.535 404.975C147.535 404.371 146.435 404.4 146.435 404.4C146.58 399.798 152.457 398.647 156.655 401.063C157.812 401.725 158.881 402.527 159.839 403.451C153.904 403.767 146.03 407.794 146.551 413.633C146.85 415.155 147.493 416.591 148.431 417.831C149.368 419.071 150.576 420.085 151.965 420.795C153.7 422.085 155.677 423.019 157.779 423.542C159.882 424.066 162.068 424.168 164.211 423.843C168.027 422.877 171.385 420.619 173.706 417.458C178.953 417.624 184.088 415.92 188.181 412.655C188.354 412.519 188.497 412.349 188.602 412.156C188.706 411.963 188.77 411.751 188.789 411.533C188.789 410.526 188.789 410.584 182.999 404.199C182.835 404.017 182.63 403.877 182.4 403.79C182.17 403.704 181.923 403.674 181.679 403.702C181.435 403.73 181.202 403.816 180.998 403.952C180.795 404.089 180.627 404.272 180.509 404.486C180.41 404.612 180.322 404.747 180.249 404.889C179.789 405.747 179.046 406.421 178.144 406.798C177.242 407.176 176.237 407.233 175.298 406.96C172.403 406.126 168.669 398.504 161.866 393.959C155.931 389.99 147.97 388.811 142.353 393.528C139.936 395.589 138.218 398.341 137.432 401.409C137.119 402.354 137.181 403.383 137.606 404.285C138.366 405.017 139.358 405.464 140.414 405.55ZM151.299 416.221C150.505 415.658 149.954 414.818 149.756 413.87C149.557 412.921 149.726 411.932 150.228 411.102C151.512 409.339 153.296 407.997 155.352 407.247C153.693 410.042 152.335 413.001 151.299 416.078V416.221ZM178.57 411.677C179.265 409.606 178.57 410.325 179.728 409.807C180.605 409.373 181.399 408.789 182.073 408.082L184.707 411.188C182.526 412.562 180.113 413.536 177.586 414.064C177.875 413.316 178.338 412.166 178.57 411.533V411.677ZM168.09 404.342C170.84 407.765 173.127 410.814 177.325 410.469C176.726 411.707 176.242 412.997 175.877 414.323C173.764 414.467 173.475 413.978 172.635 414.323C170.985 414.956 168.264 420.852 161.663 420.823C162.074 419.911 162.338 418.941 162.445 417.947C164.312 417.572 166.061 416.753 167.54 415.56C168.174 415.014 168.586 414.257 168.698 413.431C168.698 412.425 168.35 411.13 166.208 409.433C167.006 407.754 167.637 406 168.09 404.199V404.342ZM158.363 415.215C155.815 413.863 160.158 411.476 162.966 411.562C163.611 411.567 164.242 411.753 164.785 412.099C165.328 412.445 165.761 412.937 166.034 413.518C165.648 414.136 165.138 414.67 164.536 415.086C163.935 415.502 163.254 415.792 162.535 415.937C161.817 416.082 161.077 416.081 160.359 415.932C159.642 415.783 158.962 415.49 158.363 415.071V415.215ZM161.779 397.612C163.745 399.272 165.53 401.133 167.106 403.163C166.19 404.823 165.489 406.592 165.021 408.427C163.805 408.08 162.529 407.985 161.274 408.148C160.019 408.312 158.811 408.729 157.726 409.376C152.428 412.252 153.673 418.551 161.026 417.832C160.594 418.659 160.273 419.539 160.071 420.449C157.135 419.868 154.39 418.574 152.081 416.682C154.133 413.514 155.731 410.077 156.828 406.471C157.954 405.957 159.171 405.672 160.409 405.633C161.647 405.593 162.881 405.8 164.037 406.241L164.645 403.968L164.008 403.681C162.647 402.76 162.039 402.041 160.476 400.805C161.056 399.754 161.494 398.632 161.779 397.468V397.612ZM150.546 393.01C154.169 393.076 157.677 394.284 160.563 396.461C160.045 397.634 159.656 398.859 159.405 400.114C158.017 399.032 156.38 398.311 154.642 398.014C152.903 397.718 151.117 397.857 149.446 398.417C150.057 396.673 150.427 394.853 150.546 393.01ZM143.917 395.253C145.521 394.013 147.45 393.254 149.475 393.067C148.577 395.001 148.019 397.073 147.825 399.194C146.962 399.708 146.256 400.445 145.782 401.326C145.308 402.208 145.084 403.2 145.133 404.199C143.104 404.31 141.074 404.006 139.169 403.307C139.599 400.112 141.286 397.217 143.859 395.253H143.917ZM100.665 390.45C95.4544 388.207 83.8744 394.851 81.761 398.417C81.4553 399.204 81.4553 400.075 81.761 400.862C83.5849 407.736 100.607 432.012 103.763 435.78C104.313 436.47 105.066 435.521 104.574 434.716C103.068 432.242 103.242 437.218 110.943 412.453C111.656 412.176 112.32 411.788 112.911 411.303C113.18 411.007 113.328 410.623 113.328 410.224C113.328 409.826 113.18 409.442 112.911 409.146C112.648 408.823 112.347 408.533 112.014 408.283L113.838 401.581L121.075 405.55C119.611 409.185 118.544 412.965 117.891 416.825C114.972 417.871 112.236 419.366 109.785 421.255C108.077 423.124 110.769 426.576 112.448 428.647C114.127 430.718 115.546 432.127 115.864 432.444C116.183 432.76 117.196 432.443 117.109 431.926C116.925 431.509 116.681 431.122 116.385 430.775C114.817 428.35 113.47 425.789 112.361 423.124C114.611 421.787 116.987 420.67 119.454 419.788C120.351 419.472 123.131 418.609 123.883 419.069C127.597 421.013 131.471 422.639 135.463 423.93C135.624 424.006 135.81 424.016 135.978 423.956C136.146 423.897 136.284 423.774 136.361 423.613C136.437 423.453 136.447 423.269 136.387 423.102C136.328 422.935 136.203 422.798 136.042 422.722L131.034 419.702C132.1 417.3 132.784 414.748 133.06 412.137L145.422 418.781C146.175 419.213 146.754 418.033 146.204 417.717C145.654 417.401 108.134 393.7 100.665 390.45ZM96.265 393.499C97.2752 393.197 98.3523 393.197 99.3626 393.499C100.028 393.787 101.65 394.649 103.85 395.857C103.108 397.893 102.603 400.007 102.344 402.156C100.405 401.063 99.2468 400.229 97.7125 400.488C96.8762 400.674 96.0938 401.048 95.4254 401.581C95.7149 399.338 95.9755 397.612 96.265 393.499ZM84.685 399.827C87.6874 396.983 91.33 394.892 95.3096 393.729C93.7646 400.514 92.6813 407.394 92.0672 414.323C89.1479 409.73 86.6853 404.865 84.7139 399.798L84.685 399.827ZM97.8283 424.016C96.236 421.399 94.499 418.494 92.8489 415.646C93.8332 411.533 94.1516 409.635 94.7596 405.752C96.3435 408.481 98.175 411.061 100.231 413.46C99.0639 416.885 98.2681 420.424 97.8572 424.016H97.8283ZM102.895 432.3C101.852 430.66 100.521 428.445 98.7836 425.598C99.8826 421.989 100.61 418.279 100.955 414.524C101.592 416.049 107.266 413.863 108.8 413.288C107.671 416.825 103.734 429.136 102.923 432.3H102.895ZM102.026 413.633C100.232 410.548 98.6458 407.348 97.2782 404.055L98.1757 403.566C98.581 403.796 108.482 409.606 109.206 410.066C106.949 411.492 104.554 412.687 102.055 413.633H102.026ZM110.711 407.305C108.54 405.867 105.587 404.112 103.329 402.818C104.101 400.782 104.607 398.655 104.834 396.49L113.056 401.092C112.911 402.185 111.927 404.429 110.885 407.305H110.711ZM129.876 418.81L125.418 416.135C123.437 415.358 121.232 415.358 119.251 416.135C120.373 412.773 121.187 409.317 121.683 405.809L132.163 411.562C131.092 413.908 130.38 416.399 130.05 418.954L129.876 418.81Z" fill="black"/>
<path d="M562.651 429.052C557.961 385.678 517.546 318.978 493.402 282.535C506.883 283.607 520.414 283.943 533.932 283.542C537.782 283.542 547.857 282.852 549.797 282.478C550.926 282.248 551.099 281.183 549.391 281.126C547.683 281.068 535.524 280.493 533.874 280.464H504.432C499.916 280.637 492.852 281.04 492.447 281.04C483.762 267.895 477.711 259.669 477.653 259.64C477.587 259.573 477.507 259.521 477.418 259.487C477.33 259.454 477.235 259.439 477.14 259.445C477.046 259.45 476.953 259.476 476.869 259.52C476.786 259.563 476.712 259.625 476.654 259.699C476.596 259.773 476.554 259.859 476.532 259.951C476.51 260.042 476.508 260.137 476.526 260.23C476.543 260.322 476.581 260.41 476.636 260.487C476.69 260.564 476.761 260.628 476.843 260.676C478.174 261.74 536.682 346.676 554.573 405.179C561.666 428.391 565.864 457.527 542.993 465.581C488.683 484.852 63.3209 491.122 23.1094 468.457C17.522 465.322 16.2193 458.793 17.3194 449.991C19.0274 437.767 25.657 421.229 33.6472 402.706C42.6506 411.334 117.342 479.473 129.443 476.913C141.544 474.353 209.605 442.944 212.413 436.933C214.045 432.758 214.908 428.325 214.961 423.846C215.304 423.378 215.463 422.801 215.41 422.224C215.357 421.648 215.094 421.11 214.672 420.711C210.184 416.282 121.163 346.158 115.431 346.36C111.436 346.532 104.198 350.616 100.753 352.63C99.6363 350.814 97.9733 349.393 95.9993 348.567C94.0253 347.741 91.8401 347.553 89.7523 348.028C87.7838 348.818 86.0212 350.041 84.5971 351.605C83.173 353.169 82.1245 355.034 81.5305 357.059C81.5629 357.215 81.6483 357.354 81.7722 357.454C81.8961 357.555 82.051 357.609 82.2108 357.609C82.3706 357.609 82.5255 357.555 82.6494 357.454C82.7733 357.354 82.8587 357.215 82.8911 357.059C84.6324 354.134 87.3927 351.944 90.6497 350.904C92.0039 350.697 93.3894 350.877 94.6449 351.422C95.9005 351.967 96.9746 352.854 97.7425 353.982L65.5501 367.644C63.8408 365.898 61.7068 364.62 59.3548 363.934C53.8543 362.495 50.1487 366.091 47.9485 371.354C47.9 371.506 47.9056 371.669 47.9643 371.817C48.023 371.965 48.1312 372.088 48.2707 372.165C48.4101 372.243 48.5723 372.271 48.7298 372.244C48.8874 372.216 49.0306 372.136 49.1354 372.016C52.841 366.695 57.1256 364.883 62.2498 369.14C56.0545 371.872 47.3984 375.755 41.3189 378.746C41.7532 378.056 104.227 265.652 104.227 265.364C106.978 260.302 112.507 251.242 118.21 250.062C120.788 249.504 123.417 249.215 126.056 249.199C122.032 255.815 89.3759 309.601 89.318 317.194C89.318 325.823 90.8234 324.471 95.4554 325.823C100.087 327.175 359.277 325.593 359.74 325.593C364.227 325.593 381.771 325.018 383.392 323.838C388.429 320.157 387.3 314.663 385.1 308.882C384.579 307.501 381.945 301.778 378.413 294.127C393.611 289.582 405.047 295.363 406.089 320.013C407.131 341.326 398.678 347.826 382.495 346.906C369.496 346.158 360.522 342.362 357.685 347.395C354.5 353.004 363.301 365.602 367.122 370.837C366.572 370.837 342.341 370.348 336.233 370.089C327.625 369.758 319.006 369.863 310.409 370.405C304.489 370.535 298.603 371.336 292.865 372.792C290.694 373.857 287.886 379.408 286.699 381.738C284.354 386.311 273.672 415.016 270.719 423.3C268.982 428.074 263.105 443.894 267.042 446.684C266.897 449.761 267.389 453.874 270.111 455.312C272.832 456.751 310.235 457.786 313.102 457.843C318.168 457.987 369.38 458.649 402.065 457.211C434.749 455.773 449.022 452.666 448.182 452.753C449.012 452.51 449.758 452.042 450.336 451.402C450.914 450.762 451.301 449.975 451.454 449.128C451.9 447.003 451.76 444.796 451.048 442.743C454.696 435.696 427.107 377.193 419.464 373.08C419.012 372.827 418.505 372.689 417.987 372.677C416.453 372.677 382.118 371.239 368.772 370.808C365.877 366.752 356.469 351.479 360.087 348.229C365.588 343.455 411.532 367.385 409.071 319.754C407.797 298.211 397.809 285.584 377.544 292.89C375.778 289.093 360.956 257.627 356.99 249.257C372.354 250.17 387.769 249.834 403.078 248.25C403.298 250.935 404.075 253.545 405.361 255.916C406.646 258.287 408.412 260.368 410.547 262.028C422.127 270.656 468.216 269.362 476.582 258.806C478.927 255.621 480.547 251.968 481.332 248.099C482.117 244.231 482.047 240.239 481.127 236.4C481.897 235.913 482.495 235.199 482.835 234.358C483.299 233.466 482.835 232.345 480.838 231.942C478.261 231.558 475.655 231.404 473.05 231.482C473.05 229.123 473.195 224.722 473.05 219.718C473.311 219.545 475.193 217.302 475.395 217.043C477.702 214.364 479.524 211.309 480.78 208.011C481.735 205.336 482.112 202.259 479.593 200.763C475.714 198.664 472.992 202.518 471.69 206.832C470.474 200.188 467.666 190.437 460.949 191.415C449.543 193.141 457.417 220.609 461.123 231.482C457.868 231.026 454.564 231.026 451.309 231.482C454.928 222.45 456.78 210.773 447.487 209.018C446.079 208.709 444.609 208.816 443.261 209.327C441.913 209.838 440.746 210.731 439.902 211.894C439.717 211.243 439.367 210.65 438.888 210.17C438.408 209.689 437.813 209.338 437.159 209.148C436.506 208.958 435.814 208.937 435.149 209.085C434.485 209.233 433.869 209.547 433.36 209.996C429.104 213.045 431.536 220.034 436.486 222.335C436.226 225.292 436.226 228.266 436.486 231.223C433.404 230.853 430.285 230.921 427.222 231.424C427.051 224.401 426.276 217.406 424.906 210.514C426.666 209.27 428.145 207.677 429.252 205.835C430.358 203.993 431.067 201.943 431.333 199.814C431.739 195.989 430.378 192.796 427.165 191.962C423.14 190.926 420.767 193.716 420.072 197.714C416.511 192.825 409.534 191.07 406.147 196.679C395.291 185.461 390.051 191.732 392.801 196.679C394.856 200.476 400.212 202.604 404.381 203.783C404.381 210.226 407.276 215.662 410.866 221.213C413.268 224.953 415.961 228.548 418.045 231.194C413.54 231.05 409.032 231.339 404.583 232.057C401.862 232.776 401.428 234.732 403.947 236.141C403.15 239.513 402.858 242.982 403.078 246.438C387.527 245.616 371.935 245.981 356.44 247.531C355.455 245.432 352.531 239.305 352.184 238.586C351.837 237.867 354.616 229.526 358.524 151.982C376.473 150.486 457.186 152.269 464.597 149.422C465.022 149.27 465.398 149.009 465.688 148.666C465.978 148.322 466.171 147.908 466.247 147.466C468.708 139.441 470.387 70.4685 466.247 64.0544C465.234 62.4725 461.615 61.9835 459.617 61.6959C433.823 57.9567 326.187 59.5674 320.657 62.4725C315.128 65.3775 317.473 93.7374 318.515 99.3749C262.613 97.5916 133.525 101.072 121.366 105.588C118.471 106.623 117.4 110.564 116.821 113.526C112.015 138.176 125.506 217.503 130.022 242.009C129.732 242.009 130.022 242.009 126.49 247.474C123.5 247.254 120.495 247.408 117.544 247.934C110.944 248.941 104.864 258.001 101.506 263.638C101.361 263.926 92.821 278.02 91.5472 280.321C84.2807 279.199 50.4961 279.63 46.2115 279.86C41.9269 280.091 37.5265 280.407 33.6472 280.695C32.9524 280.695 32.8945 282.018 33.6472 282.046C41.7532 282.535 44.735 282.708 51.0172 282.794C66.3896 283.024 89.0575 283.657 89.7812 283.571C88.2758 286.188 65.9843 325.593 63.0025 331.173C50.0329 355.334 39.8425 377.452 39.2345 379.322C35.8692 380.842 32.7084 382.774 29.8258 385.074C28.8959 387.608 28.3401 390.263 28.1756 392.955C28.0309 397.586 29.71 398.708 32.2865 401.296C25.373 416.014 19.6893 431.271 15.2929 446.914C13.8576 453.242 13.7984 459.803 15.1192 466.156C16.3012 472.507 18.5107 478.627 21.6619 484.276C23.0774 485.705 24.9116 486.651 26.9018 486.98C34.5157 489.108 58.1099 491.841 66.0133 492.733C65.4175 496.247 65.2522 499.821 65.5211 503.375C65.5289 507.037 66.0651 510.679 67.1134 514.189C67.1229 514.276 67.1495 514.361 67.1918 514.437C67.234 514.514 67.291 514.581 67.3596 514.636C67.4281 514.691 67.5069 514.732 67.5913 514.756C67.6757 514.781 67.7642 514.789 67.8516 514.779C67.939 514.77 68.0237 514.743 68.1009 514.701C68.178 514.659 68.2461 514.603 68.3012 514.534C68.3563 514.466 68.3974 514.388 68.4221 514.304C68.4468 514.22 68.4546 514.133 68.4451 514.046C68.9082 510.46 69.0342 506.84 68.8214 503.231C68.8024 499.757 68.4044 496.294 67.6345 492.905C71.6296 493.25 75.4799 493.538 78.8381 493.653C78.3041 497.01 78.1584 500.416 78.4039 503.806C78.4137 507.468 78.9498 511.11 79.9961 514.621C79.9961 514.796 80.0663 514.965 80.1911 515.089C80.316 515.213 80.4854 515.282 80.662 515.282C80.8386 515.282 81.0079 515.213 81.1328 515.089C81.2577 514.965 81.3278 514.796 81.3278 514.621C81.8066 511.037 81.9423 507.416 81.7331 503.806C81.7133 500.447 81.325 497.101 80.5751 493.826C87.031 493.969 182.045 502.454 346.133 499.233C390.108 498.37 442.971 496.357 486.512 491.611C485.937 495.079 485.772 498.603 486.02 502.109C486.034 505.763 486.58 509.396 487.641 512.895C487.621 512.992 487.622 513.091 487.645 513.187C487.668 513.283 487.713 513.372 487.775 513.449C487.838 513.525 487.916 513.587 488.006 513.629C488.095 513.672 488.193 513.694 488.292 513.694C488.392 513.694 488.49 513.672 488.579 513.629C488.669 513.587 488.747 513.525 488.81 513.449C488.872 513.372 488.917 513.283 488.94 513.187C488.963 513.091 488.964 512.992 488.944 512.895C489.449 509.313 489.585 505.69 489.349 502.08C489.318 498.528 488.9 494.988 488.104 491.525C491.318 491.179 498.758 490.259 499.395 490.173C498.825 493.622 498.669 497.127 498.932 500.614C498.933 504.276 499.47 507.919 500.524 511.428C500.543 511.604 500.632 511.764 500.77 511.875C500.908 511.986 501.085 512.037 501.262 512.018C501.439 511.999 501.6 511.911 501.712 511.773C501.823 511.636 501.875 511.46 501.856 511.284C502.332 507.71 502.458 504.097 502.232 500.498C502.213 496.954 501.796 493.423 500.987 489.971C514.043 488.217 553.966 482.867 559.408 471.793C565.835 459.167 565.314 442.743 562.651 429.052ZM299.206 382.744C299.524 381.968 309.222 379.868 319.818 382.744C319.915 382.724 320.015 382.725 320.112 382.748C320.208 382.771 320.298 382.815 320.375 382.877C320.452 382.94 320.514 383.018 320.557 383.107C320.6 383.196 320.622 383.293 320.622 383.391C320.622 383.49 320.6 383.587 320.557 383.676C320.514 383.765 320.452 383.843 320.375 383.905C320.298 383.967 320.208 384.012 320.112 384.035C320.015 384.058 319.915 384.059 319.818 384.039C314.542 384.97 309.154 385.106 303.837 384.441C301.348 384.039 298.192 384.01 299.119 382.744H299.206ZM448.037 451.142C421.259 456.204 273.324 455.054 271.095 454.018C268.866 452.983 268.663 449.646 268.605 447.46C284.644 452.637 441.35 448.639 450.064 444.066C450.527 446.597 450.643 450.653 447.951 451.142H448.037ZM391.846 383.061C391.846 382.083 398.214 381.536 398.504 381.508C402.291 381.218 406.095 381.218 409.881 381.508C411.995 381.738 414.919 382.025 414.687 382.917C414.455 383.809 410.084 384.182 409.331 384.297C406.502 384.557 403.661 384.672 400.82 384.643C398.909 384.585 391.643 384.24 391.759 383.061H391.846ZM429.046 392.639C436.289 406.35 442.37 420.637 447.227 435.351C447.844 437.21 448.186 439.147 448.24 441.104C435.184 445.13 284.702 449.272 269.474 444.929C268.75 444.728 268.547 444.929 268.374 443.721C267.274 435.898 280.156 404.805 283.138 397.557C337.912 395.745 428.467 392.955 428.959 392.639H429.046ZM404.67 202.489C401.504 200.761 398.632 198.548 396.159 195.931C395.03 194.234 395.291 193.055 398.62 194.665C400.704 195.615 403.628 197.312 405.597 198.491C405.091 199.771 404.779 201.118 404.67 202.489ZM474.15 207.637C476.466 203.496 478.753 202.316 478.522 204.761C477.278 209.136 475.509 213.346 473.253 217.302C473.079 214.425 472.877 212.498 472.645 210.6C472.761 210.197 473.34 208.989 474.064 207.637H474.15ZM461.847 232.661C462.426 234.3 462.802 235.278 462.831 235.336C462.863 235.417 462.911 235.492 462.972 235.555C463.033 235.618 463.106 235.668 463.187 235.703C463.267 235.738 463.354 235.756 463.442 235.757C463.53 235.758 463.618 235.742 463.699 235.71C464.973 235.221 463.091 234.042 460.081 216.698C459.183 211.52 456.52 195.557 461.789 194.809C466.073 194.177 468.389 204.732 469.2 208.903C470.702 216.942 471.669 225.071 472.095 233.236C472.093 233.395 472.149 233.55 472.252 233.672C472.356 233.793 472.5 233.874 472.658 233.898C472.817 233.923 472.979 233.89 473.115 233.805C473.25 233.72 473.351 233.59 473.398 233.438C473.407 233.275 473.407 233.111 473.398 232.949C476.015 233.025 478.616 233.382 481.156 234.013C480.833 234.388 480.427 234.683 479.969 234.876C473.89 237.982 455.507 237.378 449.166 237.263C450.035 235.537 450.643 234.214 451.309 232.632C454.768 233.197 458.297 233.207 461.76 232.661H461.847ZM439.266 226.362C439.931 220.609 441.408 211.434 447.256 212.527C453.104 213.62 451.627 222.048 450.353 227.685C449.568 230.919 448.602 234.107 447.458 237.234H438.773C438.704 233.605 438.839 229.976 439.179 226.362H439.266ZM435.589 212.843C435.724 212.716 435.884 212.618 436.059 212.556C436.234 212.493 436.42 212.468 436.605 212.482C436.791 212.495 436.971 212.547 437.135 212.634C437.299 212.721 437.443 212.842 437.558 212.987C438.019 213.446 438.436 213.947 438.802 214.483C437.98 216.317 437.406 218.251 437.094 220.235C435.589 218.165 433.649 214.397 435.589 212.843ZM426.47 195.356C430.233 196.535 427.28 206.372 424.762 209.363C424.066 206.267 423.027 203.258 421.664 200.389C422.504 197.858 423.922 194.55 426.47 195.327V195.356ZM419.348 232.977C420.767 234.761 421.693 235.854 421.693 235.854C421.808 235.966 421.96 236.034 422.121 236.043C422.283 236.053 422.442 236.004 422.57 235.905C422.697 235.806 422.784 235.665 422.815 235.508C422.845 235.35 422.817 235.187 422.735 235.048C422.735 235.048 417.611 227.8 413.384 220.293C410.2 214.54 407.16 208.788 408 202.431C408.665 197.427 411.329 195.298 415.816 198.203C422.301 202.345 425.254 227.886 426.18 235.595C426.189 235.796 426.261 235.99 426.385 236.15C426.51 236.31 426.681 236.427 426.875 236.486C427.657 236.486 427.541 235.652 427.512 235.25C427.483 234.847 427.512 232.833 427.512 232.632C430.588 233.019 433.7 233.019 436.776 232.632C436.95 234.732 437.152 236.371 437.297 237.234C427.02 237.234 414.6 237.924 406.089 234.617C410.464 233.757 414.895 233.209 419.348 232.977ZM405.481 237.205C409.715 238.836 414.178 239.806 418.711 240.082C423.835 240.542 458.72 240.599 462.686 240.398C468.667 240.3 474.588 239.202 480.201 237.148C480.74 240.68 480.537 244.284 479.605 247.734C478.673 251.185 477.033 254.406 474.787 257.195C467.752 265.393 423.256 267.262 412.574 259.784C405.539 254.981 404.265 245.374 405.481 237.177V237.205ZM382.147 321.652C382.755 323.58 106.717 323.666 106.427 323.637C94.8475 323.637 97.7425 323.637 93.8632 322.688C92.821 322.458 92.6183 322.458 92.4157 321.451C92.1701 319.872 92.1021 318.271 92.213 316.677C92.2737 316.795 92.3718 316.889 92.4921 316.947C92.6124 317.004 92.7483 317.02 92.8789 316.993C92.8789 316.993 382.06 313.081 383.942 313.024C384.724 316.389 384.84 319.524 382.147 321.652ZM463.584 147.092C463.584 147.092 463.757 146.804 463.815 146.891C463.873 146.977 463.584 147.063 463.439 147.092H463.584ZM319.615 74.5528C319.615 72.6832 320.368 65.6076 322.047 64.7447C325.868 62.8464 447.314 61.2357 463.902 66.3842C466.797 72.4243 465.871 140.275 463.439 147.092C449.195 149.307 377.515 149.134 358.871 151.033C360.001 128.396 360.493 109.327 359.566 105.616C359.388 105.133 359.099 104.696 358.722 104.342C358.345 103.988 357.891 103.725 357.395 103.574C351.055 100.842 327.2 100.065 320.252 99.8351C319.351 91.4387 319.138 82.9834 319.615 74.5528ZM119.426 146.977C118.992 140.937 116.849 110.449 122.639 108.32C125.534 107.313 135.725 106.307 150.518 105.444C178.86 103.689 223.53 102.28 264.176 101.992C273.208 101.992 349.521 101.331 356.99 106.422C359.19 116.374 352.155 226.937 350.592 237.608C282.183 239.823 201.123 243.159 132.135 241.491C130.977 234.904 122.118 184.081 119.426 146.977ZM131.238 243.418C131.243 243.351 131.243 243.284 131.238 243.217C180.018 244.712 332.672 239.737 351.258 239.621C353.313 244.367 382.176 307.99 383.392 311.528C383.074 311.528 92.6473 315.44 92.2709 315.727C95.9186 303.59 126.085 252.277 131.238 243.418ZM210.821 436.128C208.679 440.27 143.773 469.09 130.427 473.088C130.686 471.762 130.783 470.41 130.717 469.061C150.431 462.273 193.22 444.354 212.413 431.67C212.048 433.218 211.514 434.722 210.821 436.156V436.128ZM212.819 429.771C207.029 433.165 201.499 435.524 130.688 467.508C130.69 466.205 130.515 464.909 130.166 463.654C139.43 459.339 202.252 435.15 213.456 425.514C213.311 426.751 213.108 428.247 212.819 429.8V429.771ZM63.6973 370.75C65.0894 372.379 65.951 374.39 66.1681 376.516C66.3852 378.643 65.9476 380.784 64.9132 382.658C64.45 383.377 65.5501 384.125 66.0133 383.377C67.761 381.484 68.7942 379.048 68.9367 376.484C69.0792 373.919 68.3223 371.384 66.7949 369.312C80.8646 362.898 94.7027 356.858 98.4952 355.218C99.444 357.134 99.9518 359.234 99.9818 361.369C100.012 363.503 99.5634 365.617 98.6689 367.558C98.3215 368.478 99.3637 368.823 99.8558 368.219C101.448 366.209 102.439 363.795 102.715 361.251C102.992 358.708 102.543 356.139 101.419 353.838C104.546 352.083 111.841 348.085 115.402 348.085C119.86 348.085 210.329 421.2 212.008 422.868C204.452 430.605 134.306 458.189 128.401 461.007C115.952 458.131 39.9872 393.214 32.8655 386.541C37.2949 382.888 58.7179 373.051 63.6973 370.75ZM30.6653 387.864C39.6977 396.637 115.055 461.985 127.677 464.056C127.424 465.14 127.307 466.251 127.329 467.364C107.064 457.527 49.1644 407.71 29.9995 391.689C30.0863 391.689 30.5206 388.871 30.7522 387.864H30.6653ZM31.0996 397.73C30.283 396.494 29.8779 395.035 29.9416 393.559C48.8749 412.542 102.317 459.224 127.3 468.946C127.249 470.484 127.405 472.022 127.764 473.519C112.912 470.211 33.0682 400.088 31.1864 397.73H31.0996ZM557.99 470.844C539.288 507.718 31.7944 498.082 23.5726 483.701C20.0875 477.682 17.7332 471.084 16.6246 464.229C17.7414 466.659 19.6068 468.673 21.9514 469.981C64.5658 494.631 488.538 488.188 543.891 468.428C555.616 464.229 561.521 455.169 562.853 442.542C563.639 452.237 561.946 461.973 557.932 470.844H557.99Z" fill="black"/>
<path d="M124.493 275.23C329.198 278.107 348.739 276.352 354.471 275.46C355.832 275.259 356.701 274.799 356.643 273.217C356.643 269.046 346.8 249.919 344.194 248.596C343.036 247.992 135.754 250.897 135.03 251.127C134.896 251.16 134.769 251.22 134.659 251.304C134.55 251.388 134.459 251.495 134.394 251.616C132.425 254.809 122.814 270.571 123.248 274.137C123.295 274.435 123.445 274.707 123.672 274.907C123.899 275.106 124.19 275.221 124.493 275.23ZM135.87 253.112C137.954 252.853 341.878 250.84 343.123 250.955C345.284 254.044 347.219 257.283 348.913 260.648C344.165 260.648 131.962 261.769 130.862 261.798C132.135 259.267 133.815 256.391 135.87 253.112ZM130.08 263.179C131.209 263.179 345.931 262.086 349.608 262C351.513 265.524 353.018 269.247 354.095 273.102C343.789 274.741 249.875 273.936 125.535 273.102C126.697 269.618 128.2 266.256 130.022 263.064L130.08 263.179ZM284.268 285.01C283.69 283.74 282.747 282.668 281.556 281.931C280.366 281.194 278.982 280.824 277.58 280.868C270.227 280.868 208.477 279.171 202.918 281.414C199.37 285.686 196.624 290.558 194.812 295.796C194.638 297.061 195.275 297.636 196.057 297.723C213.427 299.592 271.009 301.376 285.947 298.643C287.8 298.298 288.031 296.342 287.655 294.473C286.759 291.241 285.627 288.078 284.268 285.01ZM196.868 295.796C198.531 291.128 200.788 286.692 203.584 282.594C207.984 281.155 265.219 284.147 277.667 284.118C278.408 284.092 279.141 284.278 279.778 284.656C280.415 285.034 280.928 285.586 281.257 286.246C282.664 289.234 283.76 292.357 284.528 295.566C269.851 297.838 207.521 296.543 196.868 295.796ZM485.325 288.691C481.243 283.111 460.776 283.37 453.915 283.572C448.125 283.572 427.078 284.521 427.078 290.158C427.102 290.615 427.236 291.059 427.467 291.454C427.699 291.849 428.022 292.184 428.41 292.43C428.96 292.862 425.167 330.771 430.378 351.106C432.086 357.837 434.287 361.173 440.742 363.963C453.133 369.313 473.688 368.134 481.938 356.715C483.588 353.378 483.241 343.657 483.386 340.694C496.211 343.225 506.719 338.048 509.441 324.328C511.149 315.498 508.949 309.717 505.156 306.208C502.622 304.158 499.627 302.748 496.426 302.097C493.225 301.446 489.914 301.573 486.773 302.469C486.663 302.505 486.546 302.515 486.432 302.498C486.318 302.481 486.209 302.436 486.116 302.369C486.022 302.301 485.946 302.212 485.894 302.11C485.842 302.007 485.816 301.893 485.818 301.778C485.818 300.254 486.368 289.928 485.325 288.691ZM430.32 289.295C438.137 284.751 469.982 284.406 480.259 289.036C480.607 289.209 481.909 289.871 481.909 290.158C481.909 290.446 480.578 291.136 480.259 291.28C472.501 294.76 444.795 296.342 430.234 291.05C429.22 290.503 430.234 289.41 430.234 289.295H430.32ZM487.584 305.402C490.215 304.649 492.99 304.541 495.673 305.087C498.355 305.633 500.864 306.817 502.985 308.537C506.112 311.414 507.675 316.361 506.227 323.695C505.939 326.245 505.05 328.691 503.632 330.836C502.213 332.98 500.305 334.761 498.063 336.035C493.315 338.157 487.97 338.564 482.952 337.185C482.705 337.096 482.443 337.059 482.181 337.075C481.919 337.091 481.663 337.161 481.43 337.28C481.196 337.398 480.989 337.564 480.823 337.765C480.656 337.966 480.534 338.2 480.462 338.451C479.68 340.637 480.78 349.467 479.188 355.047C471.864 364.912 453.133 365.804 442.045 361.173C436.429 358.786 434.866 356.312 433.36 350.358C429.481 336.236 429.249 307.473 430.118 293.322C439.237 297.608 470.821 298.844 483.241 292.517C483.241 301.433 482.141 302.929 484.399 304.741C484.836 305.068 485.339 305.297 485.874 305.411C486.409 305.525 486.963 305.522 487.497 305.402H487.584ZM206.363 366.35C198.76 359.944 190.581 354.244 181.929 349.323C178.596 347.369 175.052 345.796 171.363 344.635C168.265 343.829 166.962 345.411 167.599 347.511C168.904 350.525 170.629 353.343 172.723 355.881C179.385 364.258 187.045 371.801 195.536 378.344C208.448 389.073 225.181 402.074 237.398 411.306C238.02 411.758 238.727 412.082 239.477 412.259C240.227 412.436 241.005 412.462 241.766 412.336C242.526 412.21 243.254 411.935 243.905 411.526C244.557 411.117 245.12 410.583 245.562 409.954C247.704 407.625 249.036 403.54 246.633 401.326C243.853 398.852 226.86 382.946 206.363 366.35ZM178.629 359.965L174.663 353.609C176.075 353.026 177.269 352.021 178.079 350.732L184.361 353.263C182.785 353.574 181.361 354.405 180.32 355.622C179.279 356.839 178.683 358.369 178.629 359.965ZM187.517 367.3C185.425 365.55 183.488 363.626 181.727 361.547C181.929 358.067 183.03 356.514 186.532 356.398C188.866 357.506 191.07 358.866 193.104 360.454C191.547 360.831 190.158 361.704 189.149 362.941C188.14 364.177 187.566 365.708 187.517 367.3ZM237.021 409.149C233.808 406.474 191.078 370.463 188.443 368.162C188.664 366.552 189.372 365.046 190.473 363.845C191.574 362.643 193.017 361.802 194.61 361.432C204.597 368.795 218.956 380.991 243.998 401.7C243.023 401.65 242.05 401.814 241.145 402.178C240.241 402.542 239.427 403.099 238.763 403.809C238.098 404.519 237.597 405.365 237.296 406.287C236.996 407.21 236.902 408.187 237.021 409.149ZM466.421 441.018C470.04 443.463 472.558 442.341 474.903 438.947C480.693 430.779 500.958 394.624 500.958 394.336C500.958 394.049 501.19 394.595 500.235 382.975C500.193 382.538 500.034 382.12 499.775 381.766C499.515 381.411 499.164 381.132 498.758 380.958C498.352 380.785 497.907 380.723 497.469 380.779C497.031 380.835 496.616 381.008 496.269 381.278L486.368 388.44C486.368 388.44 464.395 433.569 464.163 433.971C463.766 435.234 463.769 436.588 464.173 437.849C464.577 439.109 465.362 440.216 466.421 441.018ZM497.079 384.787C497.253 386.887 497.484 389.677 497.658 391.604C495.508 390.581 493.257 389.781 490.942 389.217L497.079 384.787ZM488.799 391.173C491.309 392.94 494.207 394.084 497.253 394.509C496.819 395.257 474.701 435.352 474.469 435.755C473.797 434.396 472.692 433.295 471.325 432.624C469.959 431.953 468.408 431.75 466.913 432.044C469.171 427.874 487.989 392.611 488.799 391.173Z" fill="black"/>
<path d="M475.483 334.136C475.171 333.701 474.774 333.332 474.317 333.051C473.86 332.769 473.351 332.581 472.819 332.497C471.106 332.042 469.366 331.696 467.608 331.461C468.593 338.307 469.172 345.843 469.143 346.504C469.099 346.942 468.882 347.345 468.541 347.625C468.199 347.905 467.76 348.04 467.319 348C466.876 347.949 466.47 347.728 466.189 347.384C465.908 347.04 465.773 346.6 465.814 346.159C465.814 345.67 465.64 343.686 465.495 331.174C459.705 330.455 431.826 328.297 432.926 333.82C432.926 334.108 430.639 348.201 439.498 354.96C448.357 361.72 466.074 360.397 472.269 353.522C474.027 351.43 475.187 348.907 475.628 346.217C476.311 342.214 476.262 338.122 475.483 334.136ZM482.431 308.106C482.431 309.4 480.694 319.295 479.536 332.583L480.925 332.871C486.019 333.945 491.325 333.37 496.066 331.231C497.72 330.319 499.088 328.972 500.023 327.339C500.957 325.705 501.421 323.848 501.364 321.97C501.56 319.635 501.152 317.289 500.177 315.156C499.202 313.023 497.694 311.173 495.796 309.783C493.897 308.393 491.673 307.509 489.333 307.216C486.993 306.922 484.617 307.229 482.431 308.106ZM483.734 309.084C485.581 308.793 487.47 308.9 489.273 309.396C491.076 309.892 492.751 310.767 494.185 311.96C495.561 313.215 496.627 314.768 497.3 316.499C497.973 318.231 498.234 320.093 498.064 321.941C497.803 329.333 490.16 330.742 482.836 329.995C483.184 324.76 483.473 318.748 483.734 309.084ZM203.527 282.594C203.527 282.594 203.556 282.622 203.527 282.594V282.594ZM452.728 140.247C452.721 140.76 452.815 141.269 453.006 141.744C453.197 142.22 453.481 142.654 453.842 143.02C454.203 143.387 454.633 143.678 455.107 143.879C455.582 144.079 456.092 144.184 456.607 144.188C457.395 144.205 458.171 143.989 458.834 143.566C459.498 143.144 460.019 142.535 460.333 141.816C460.647 141.098 460.738 140.303 460.595 139.533C460.451 138.763 460.081 138.053 459.53 137.493C458.979 136.933 458.272 136.549 457.501 136.39C456.729 136.231 455.927 136.304 455.197 136.599C454.467 136.895 453.843 137.4 453.403 138.05C452.963 138.699 452.728 139.465 452.728 140.247ZM135.87 235.135C136.536 236.43 137.405 236.574 137.955 236.171C138.505 235.768 321.845 234.186 335.481 233.467C338.413 233.512 341.337 233.144 344.166 232.374C350.679 226.622 353.227 119.078 350.679 114.102C344.166 101.188 140.3 109.5 127.764 113.268C117.777 116.259 131.267 225.96 135.87 235.135ZM127.214 117.928C127.214 117.41 127.851 115.397 128.343 115.253C142.21 111.111 343.558 104.294 349.029 115.109C349.496 117.273 349.71 119.483 349.666 121.696C350.158 134.236 349.666 161.1 348.363 185.175C348.103 189.777 346.047 227.485 343.037 230.907C331.022 233.438 145.887 234.014 137.665 234.33C132.975 223.515 122.843 136.911 127.214 117.928ZM456.984 76.8259C457.77 76.843 458.544 76.6272 459.207 76.2061C459.87 75.7849 460.392 75.1773 460.706 74.4607C461.021 73.744 461.113 72.9506 460.973 72.1815C460.832 71.4123 460.464 70.7022 459.916 70.1413C459.368 69.5804 458.664 69.1943 457.894 69.0319C457.125 68.8695 456.324 68.9382 455.594 69.2293C454.863 69.5204 454.237 70.0208 453.794 70.6667C453.35 71.3126 453.11 72.0749 453.104 72.8567C453.093 73.3714 453.185 73.8832 453.374 74.3625C453.563 74.8417 453.847 75.2787 454.208 75.648C454.569 76.0174 455 76.3118 455.477 76.514C455.953 76.7162 456.466 76.8222 456.984 76.8259Z" fill="black"/>
<path d="M183.867 190.41H218.26C222.24 190.394 226.051 188.811 228.857 186.007C231.663 183.203 233.235 179.407 233.227 175.453V147.726C233.227 143.763 231.657 139.96 228.856 137.139C226.055 134.319 222.248 132.707 218.26 132.654H183.867C181.873 132.647 179.897 133.031 178.053 133.786C176.209 134.541 174.534 135.651 173.124 137.052C171.713 138.453 170.596 140.117 169.837 141.949C169.077 143.781 168.69 145.745 168.697 147.726V175.453C168.705 177.425 169.103 179.376 169.87 181.194C170.636 183.013 171.756 184.664 173.165 186.053C174.573 187.442 176.243 188.541 178.08 189.289C179.916 190.036 181.883 190.417 183.867 190.41ZM171.158 147.726C171.211 144.401 172.57 141.229 174.944 138.886C177.319 136.543 180.521 135.215 183.867 135.186H218.26C219.95 135.166 221.627 135.48 223.194 136.109C224.762 136.738 226.188 137.668 227.391 138.848C228.595 140.027 229.551 141.432 230.205 142.98C230.858 144.529 231.197 146.191 231.201 147.87V175.453C231.193 177.134 230.852 178.797 230.198 180.347C229.543 181.897 228.588 183.304 227.386 184.487C226.185 185.67 224.76 186.607 223.194 187.243C221.628 187.879 219.952 188.203 218.26 188.195H183.867C182.191 188.187 180.532 187.852 178.986 187.208C177.44 186.563 176.037 185.622 174.857 184.439C173.676 183.256 172.742 181.853 172.108 180.312C171.473 178.77 171.151 177.119 171.158 175.453V147.726ZM276.855 210.946C277.434 212.643 278.881 212.269 279.286 211.205C279.837 209.681 283.05 198.722 283.455 196.824C285.684 196.133 279.402 198.291 298.828 191.273C299.029 191.195 299.202 191.059 299.324 190.882C299.447 190.705 299.512 190.495 299.512 190.28C299.512 190.066 299.447 189.856 299.324 189.679C299.202 189.502 299.029 189.366 298.828 189.288L269.067 177.467C268.884 177.381 268.682 177.344 268.481 177.36C268.279 177.376 268.085 177.444 267.918 177.557C267.751 177.671 267.617 177.825 267.529 178.006C267.441 178.187 267.403 178.388 267.417 178.588C267.417 178.588 275.262 206.373 276.855 210.946ZM270.399 180.544L295.47 190.352C292.111 191.589 286.437 193.717 283.716 194.81C282.5 195.271 282.008 195.472 281.718 195.846C281.429 196.22 282.442 193.976 278.186 207.006L270.399 180.544ZM338.721 96.2121C338.755 96.3847 338.849 96.5398 338.987 96.6502C339.124 96.7607 339.297 96.8194 339.474 96.8162C340.081 96.8162 358.812 98.5994 362.634 97.5928C365.094 96.9312 365.529 92.6168 365.76 90.0857C366.05 86.2603 365.76 76.8837 364.139 73.691C361.939 69.3766 345.698 70.8147 340.979 71.6489C339.726 71.824 338.529 72.2761 337.476 72.9719C336.863 73.6792 336.506 74.5705 336.463 75.5031C336.434 82.4682 337.192 89.4147 338.721 96.2121ZM339.56 75.1867C344.134 73.7773 357.162 73.2308 361.302 75.1867C362.72 78.9258 363.473 91.7827 361.765 94.774C359.073 95.4643 342.629 95.4643 339.879 95.4931C339.792 93.2496 338.46 81.1405 339.56 75.1867ZM377.572 96.0971C377.611 96.2671 377.706 96.4191 377.843 96.5287C377.979 96.6383 378.149 96.699 378.324 96.7011C378.932 96.7011 397.663 98.4844 401.484 97.4777C403.945 96.8162 404.379 92.5018 404.64 89.9707C404.901 86.1452 404.64 76.7686 402.99 73.576C400.79 69.2328 384.549 70.6997 379.83 71.5338C378.58 71.7207 377.386 72.1719 376.327 72.8569C375.726 73.5719 375.371 74.4586 375.314 75.388C375.287 82.3531 376.044 89.2993 377.572 96.0971ZM378.411 75.0716C382.985 73.6335 396.013 73.1158 400.153 75.0716C401.571 78.8108 402.324 91.6677 400.616 94.6302C397.924 95.3493 381.48 95.3493 378.73 95.378C378.643 93.1345 377.311 81.0255 378.411 75.0716ZM418.218 97.3626C418.252 97.5352 418.346 97.6903 418.483 97.8007C418.621 97.9112 418.793 97.9699 418.97 97.9667C419.578 97.9667 438.309 99.75 442.13 98.7433C444.591 98.0817 445.025 93.7673 445.257 91.2362C445.546 87.4108 445.257 78.0342 443.636 74.8415C441.435 70.5271 425.194 71.9653 420.476 72.7994C419.225 72.9819 418.03 73.4334 416.973 74.1225C416.359 74.8297 416.003 75.721 415.959 76.6536C415.931 83.6187 416.688 90.5651 418.218 97.3626ZM419.057 76.3372C423.631 74.9278 436.659 74.3813 440.799 76.3372C442.217 80.0763 442.97 92.9332 441.262 95.9245C438.569 96.6148 422.126 96.6148 419.376 96.6436C419.289 94.4001 417.957 82.291 419.057 76.3372ZM377.832 140.334C378.035 140.909 378.498 140.967 378.585 140.938C379.222 140.938 397.924 142.721 401.745 141.715C404.206 141.053 404.64 136.739 404.901 134.208C405.161 130.382 404.901 121.006 403.279 117.842C401.05 113.498 384.809 114.965 380.119 115.771C378.859 115.949 377.653 116.401 376.587 117.094C375.981 117.817 375.626 118.714 375.574 119.654C375.547 126.609 376.304 133.546 377.832 140.334ZM378.701 119.309C383.275 117.899 396.273 117.353 400.413 119.309C401.832 123.048 402.585 135.905 400.876 138.896C398.184 139.586 381.769 139.586 379.019 139.615C378.903 137.371 377.572 125.262 378.701 119.309ZM445.517 116.662C450.149 109.874 454.202 103.748 454.347 103.46C454.492 103.173 452.379 100.584 451.134 102.425C442.275 115.972 443.491 114.678 442.854 114.448C437.759 112.607 421.315 113.24 418.739 115.627C417.002 117.238 417.667 123.076 417.87 125.579C416.017 124.543 414.599 123.796 414.078 123.594C412.746 123.076 412.833 124.371 413.557 124.831L418.073 127.707C418.439 131.487 419.028 135.242 419.839 138.953C419.867 139.129 419.96 139.287 420.099 139.399C420.238 139.51 420.413 139.567 420.591 139.557C421.199 139.557 439.93 141.341 443.751 140.334C448.731 138.953 447.196 120.804 445.517 116.662ZM420.678 117.842C427.488 116.302 434.545 116.175 441.406 117.468L431.361 133.201C430.348 132.626 424.934 129.462 420.418 126.931C420.227 123.928 420.314 120.915 420.678 117.928V117.842ZM442.883 137.4C440.162 138.119 423.747 138.119 420.997 138.148C420.997 136.998 420.562 133.23 420.36 129.059L431.361 135.847C431.639 135.877 431.92 135.828 432.171 135.706C432.422 135.584 432.633 135.393 432.779 135.157C433.706 133.977 438.367 127.247 443.115 120.315C444.012 125.493 444.301 134.927 442.941 137.4H442.883ZM327.778 75.877C328.563 75.8883 329.335 75.6677 329.994 75.2429C330.653 74.8182 331.17 74.2085 331.48 73.4913C331.79 72.774 331.878 71.9815 331.734 71.2141C331.59 70.4468 331.22 69.7393 330.671 69.1814C330.121 68.6234 329.417 68.2401 328.648 68.0801C327.88 67.9201 327.08 67.9906 326.352 68.2827C325.623 68.5747 324.998 69.0752 324.556 69.7206C324.114 70.366 323.875 71.1272 323.869 71.9077C323.869 72.9457 324.278 73.9424 325.009 74.6843C325.739 75.4263 326.733 75.8544 327.778 75.877Z" fill="black"/>
</svg>
