<svg xmlns="http://www.w3.org/2000/svg" xmlns:xlink="http://www.w3.org/1999/xlink" width="499" zoomAndPan="magnify" viewBox="0 0 374.25 157.5" height="210" preserveAspectRatio="xMidYMid meet" version="1.0"><defs><g/><clipPath id="6b1d6678a5"><path d="M 15.808594 0 L 135.425781 0 L 135.425781 102.425781 L 15.808594 102.425781 Z M 15.808594 0 " clip-rule="nonzero"/></clipPath></defs><g clip-path="url(#6b1d6678a5)"><path fill="#ffffff" d="M 126.714844 18.550781 L 126.714844 8.90625 C 126.714844 8.769531 126.660156 8.660156 126.578125 8.578125 C 126.492188 8.496094 126.382812 8.441406 126.246094 8.441406 L 43.464844 8.441406 C 43.328125 8.441406 43.21875 8.496094 43.132812 8.578125 C 43.050781 8.660156 42.996094 8.769531 42.996094 8.90625 L 42.996094 14.886719 L 34.621094 14.886719 L 34.621094 8.90625 C 34.621094 6.484375 35.613281 4.253906 37.210938 2.65625 C 38.808594 1.058594 41.011719 0.0664062 43.464844 0.0664062 L 126.246094 0.0664062 C 128.671875 0.0664062 130.902344 1.058594 132.5 2.65625 C 134.097656 4.253906 135.089844 6.457031 135.089844 8.90625 L 135.089844 18.550781 C 135.089844 20.972656 134.097656 23.207031 132.5 24.804688 L 132.472656 24.804688 C 130.875 26.402344 128.671875 27.390625 126.246094 27.390625 L 42.996094 27.390625 L 42.996094 34.527344 C 42.996094 34.609375 42.996094 34.664062 43.023438 34.691406 L 43.023438 34.71875 C 43.023438 34.746094 43.078125 34.800781 43.132812 34.859375 C 49.386719 41.332031 55.640625 47.804688 61.867188 54.277344 L 63.464844 55.933594 L 63.988281 56.484375 C 64.042969 56.539062 64.097656 56.59375 64.125 56.59375 C 64.152344 56.59375 64.207031 56.59375 64.320312 56.59375 L 109.910156 56.59375 C 110.046875 56.59375 110.15625 56.539062 110.242188 56.457031 C 110.324219 56.371094 110.378906 56.261719 110.378906 56.125 L 110.378906 46.484375 C 110.378906 46.34375 110.324219 46.234375 110.242188 46.152344 C 110.15625 46.070312 110.046875 46.015625 109.910156 46.015625 L 64.261719 46.015625 C 64.152344 46.015625 64.097656 46.015625 64.070312 46.015625 C 64.042969 46.015625 63.988281 46.070312 63.933594 46.125 L 61.8125 48.246094 L 56.027344 42.242188 L 58.066406 40.230469 C 58.890625 39.402344 59.855469 38.742188 60.929688 38.328125 C 62.003906 37.886719 63.132812 37.667969 64.292969 37.667969 L 109.9375 37.667969 C 112.363281 37.667969 114.59375 38.660156 116.191406 40.257812 C 117.789062 41.855469 118.78125 44.058594 118.78125 46.511719 L 118.78125 56.152344 C 118.78125 58.578125 117.789062 60.808594 116.191406 62.40625 L 116.164062 62.40625 C 114.566406 64.003906 112.363281 64.996094 109.9375 64.996094 L 64.347656 64.996094 C 63.132812 64.996094 61.976562 64.746094 60.902344 64.304688 C 59.828125 63.839844 58.863281 63.175781 58.011719 62.296875 L 52.996094 57.117188 L 43.164062 66.867188 C 43.105469 66.921875 43.078125 66.976562 43.050781 67.007812 C 43.050781 67.035156 43.023438 67.089844 43.023438 67.199219 L 43.023438 71.164062 L 34.648438 71.164062 L 34.648438 67.199219 C 34.648438 66.015625 34.871094 64.886719 35.3125 63.808594 C 35.75 62.761719 36.414062 61.800781 37.265625 60.945312 L 47.183594 51.082031 L 37.128906 40.671875 C 36.332031 39.84375 35.695312 38.90625 35.285156 37.859375 C 34.871094 36.8125 34.648438 35.710938 34.648438 34.554688 L 34.648438 27.421875 L 24.648438 27.421875 C 24.511719 27.421875 24.402344 27.476562 24.320312 27.558594 C 24.238281 27.640625 24.183594 27.75 24.183594 27.886719 L 24.183594 74.800781 C 24.183594 74.941406 24.238281 75.050781 24.320312 75.132812 C 24.402344 75.214844 24.511719 75.269531 24.648438 75.269531 L 126.273438 75.269531 C 128.699219 75.269531 130.929688 76.261719 132.527344 77.859375 C 134.125 79.457031 135.117188 81.660156 135.117188 84.113281 L 135.117188 93.753906 C 135.117188 96.179688 134.125 98.410156 132.527344 100.007812 C 130.929688 101.605469 128.726562 102.597656 126.273438 102.597656 L 43.492188 102.597656 C 41.070312 102.597656 38.835938 101.605469 37.238281 100.007812 C 35.640625 98.410156 34.648438 96.207031 34.648438 93.753906 L 34.648438 83.644531 L 24.648438 83.644531 C 22.226562 83.644531 20.023438 82.652344 18.425781 81.054688 L 18.398438 81.054688 C 16.800781 79.457031 15.808594 77.253906 15.808594 74.800781 L 15.808594 27.886719 C 15.808594 25.464844 16.800781 23.234375 18.398438 21.636719 C 19.996094 20.039062 22.199219 19.046875 24.648438 19.046875 L 126.273438 19.046875 C 126.410156 19.046875 126.519531 18.992188 126.605469 18.90625 C 126.6875 18.824219 126.742188 18.714844 126.742188 18.578125 Z M 42.996094 83.617188 L 42.996094 93.726562 C 42.996094 93.863281 43.050781 93.976562 43.132812 94.058594 C 43.21875 94.140625 43.328125 94.195312 43.464844 94.195312 L 126.246094 94.195312 C 126.382812 94.195312 126.492188 94.140625 126.578125 94.058594 C 126.660156 93.976562 126.714844 93.863281 126.714844 93.726562 L 126.714844 84.085938 C 126.714844 83.949219 126.660156 83.835938 126.578125 83.753906 C 126.492188 83.671875 126.382812 83.617188 126.246094 83.617188 Z M 42.996094 83.617188 " fill-opacity="1" fill-rule="evenodd"/></g><g fill="#ffffff" fill-opacity="1"><g transform="translate(143.320794, 73.000824)"><g><path d="M 10.574219 -43.601562 C 5.503906 -43.601562 2.726562 -40.875 2.726562 -35.753906 L 2.726562 -22.890625 C 2.726562 -21.855469 3.214844 -21.203125 4.195312 -20.875 L 17.113281 -16.625 L 17.113281 -9.375 C 17.113281 -7.902344 16.351562 -7.195312 14.933594 -7.195312 L 12.316406 -7.195312 C 10.953125 -7.195312 10.136719 -7.902344 10.136719 -9.375 L 10.136719 -13.570312 C 10.136719 -14.171875 9.863281 -14.441406 9.265625 -14.441406 L 3.597656 -14.441406 C 3.050781 -14.441406 2.726562 -14.171875 2.726562 -13.570312 L 2.726562 -7.847656 C 2.726562 -2.726562 5.503906 0 10.574219 0 L 16.675781 0 C 21.800781 0 24.527344 -2.726562 24.527344 -7.847656 L 24.527344 -20.4375 C 24.527344 -21.472656 24.035156 -22.074219 23.109375 -22.453125 L 10.136719 -26.707031 L 10.136719 -34.226562 C 10.136719 -35.644531 10.953125 -36.40625 12.316406 -36.40625 L 14.933594 -36.40625 C 16.40625 -36.40625 17.113281 -35.644531 17.113281 -34.226562 L 17.113281 -29.976562 C 17.113281 -29.429688 17.441406 -29.105469 17.984375 -29.105469 L 23.652344 -29.105469 C 24.253906 -29.105469 24.527344 -29.429688 24.527344 -29.976562 L 24.527344 -35.753906 C 24.527344 -40.875 21.800781 -43.601562 16.675781 -43.601562 Z M 10.574219 -43.601562 "/></g></g></g><g fill="#ffffff" fill-opacity="1"><g transform="translate(187.028248, 73.000824)"><g><path d="M 2.507812 -43.601562 C 1.960938 -43.601562 1.636719 -43.273438 1.636719 -42.730469 L 1.636719 -37.28125 C 1.636719 -36.734375 1.960938 -36.40625 2.507812 -36.40625 L 8.828125 -36.40625 L 8.828125 -0.871094 C 8.828125 -0.273438 9.15625 0 9.703125 0 L 15.371094 0 C 15.96875 0 16.242188 -0.273438 16.242188 -0.871094 L 16.242188 -36.40625 L 22.5625 -36.40625 C 23.164062 -36.40625 23.4375 -36.734375 23.4375 -37.28125 L 23.4375 -42.730469 C 23.4375 -43.273438 23.164062 -43.601562 22.5625 -43.601562 Z M 2.507812 -43.601562 "/></g></g></g><g fill="#ffffff" fill-opacity="1"><g transform="translate(228.555896, 73.000824)"><g><path d="M 28.996094 0 C 29.648438 0 29.867188 -0.328125 29.757812 -0.925781 L 20.710938 -42.839844 C 20.601562 -43.382812 20.273438 -43.601562 19.785156 -43.601562 L 12.207031 -43.601562 C 11.71875 -43.601562 11.390625 -43.382812 11.28125 -42.839844 L 2.234375 -0.925781 C 2.070312 -0.328125 2.34375 0 2.941406 0 L 8.773438 0 C 9.265625 0 9.539062 -0.273438 9.648438 -0.761719 L 11.117188 -8.71875 L 20.820312 -8.71875 L 22.347656 -0.761719 C 22.453125 -0.273438 22.726562 0 23.21875 0 Z M 19.457031 -15.042969 L 12.480469 -15.042969 L 15.96875 -34.0625 Z M 19.457031 -15.042969 "/></g></g></g><g fill="#ffffff" fill-opacity="1"><g transform="translate(276.949911, 73.000824)"><g><path d="M 2.726562 -7.847656 C 2.726562 -2.726562 5.449219 0 10.574219 0 L 17.769531 0 C 22.835938 0 25.617188 -2.726562 25.617188 -7.847656 L 25.617188 -23 C 25.617188 -23.597656 25.289062 -23.871094 24.742188 -23.871094 L 15.585938 -23.871094 C 14.988281 -23.871094 14.714844 -23.597656 14.714844 -23 L 14.714844 -17.550781 C 14.714844 -17.003906 14.988281 -16.675781 15.585938 -16.675781 L 18.421875 -16.675781 L 18.421875 -9.375 C 18.421875 -7.902344 17.660156 -7.195312 16.242188 -7.195312 L 12.316406 -7.195312 C 10.902344 -7.195312 10.136719 -7.902344 10.136719 -9.375 L 10.136719 -34.226562 C 10.136719 -35.644531 10.847656 -36.40625 12.316406 -36.40625 L 16.242188 -36.40625 C 17.660156 -36.40625 18.421875 -35.644531 18.421875 -34.226562 L 18.421875 -30.085938 C 18.421875 -29.539062 18.695312 -29.214844 19.292969 -29.214844 L 24.742188 -29.214844 C 25.289062 -29.214844 25.617188 -29.539062 25.617188 -30.085938 L 25.617188 -35.753906 C 25.617188 -40.875 22.835938 -43.601562 17.769531 -43.601562 L 10.574219 -43.601562 C 5.449219 -43.601562 2.726562 -40.875 2.726562 -35.753906 Z M 2.726562 -7.847656 "/></g></g></g><g fill="#ffffff" fill-opacity="1"><g transform="translate(321.747262, 73.000824)"><g><path d="M 24.472656 -42.730469 C 24.472656 -43.273438 24.253906 -43.601562 23.597656 -43.601562 L 3.542969 -43.601562 C 3.050781 -43.601562 2.726562 -43.273438 2.726562 -42.730469 L 2.726562 -0.871094 C 2.726562 -0.328125 3.050781 0 3.542969 0 L 23.597656 0 C 24.253906 0 24.472656 -0.328125 24.472656 -0.871094 L 24.472656 -6.320312 C 24.472656 -6.921875 24.253906 -7.195312 23.597656 -7.195312 L 9.972656 -7.195312 L 9.972656 -18.203125 L 20.382812 -18.203125 C 20.929688 -18.203125 21.253906 -18.53125 21.253906 -19.128906 L 21.253906 -24.527344 C 21.253906 -25.125 20.929688 -25.453125 20.382812 -25.453125 L 9.972656 -25.453125 L 9.972656 -36.351562 L 23.597656 -36.351562 C 24.253906 -36.351562 24.472656 -36.734375 24.472656 -37.28125 Z M 24.472656 -42.730469 "/></g></g></g><g fill="#ffffff" fill-opacity="1"><g transform="translate(5.976112, 145.193983)"><g><path d="M 1.289062 -0.410156 C 1.289062 -0.15625 1.441406 0 1.699219 0 L 4.378906 0 C 4.660156 0 4.789062 -0.15625 4.789062 -0.410156 L 4.789062 -6.902344 L 7.878906 -6.902344 C 10.300781 -6.902344 11.585938 -8.214844 11.585938 -10.609375 L 11.585938 -16.890625 C 11.585938 -19.3125 10.300781 -20.597656 7.878906 -20.597656 L 1.699219 -20.597656 C 1.441406 -20.597656 1.289062 -20.445312 1.289062 -20.1875 Z M 4.789062 -10.300781 L 4.789062 -17.199219 L 7.054688 -17.199219 C 7.75 -17.199219 8.085938 -16.839844 8.085938 -16.167969 L 8.085938 -11.328125 C 8.085938 -10.683594 7.75 -10.300781 7.054688 -10.300781 Z M 4.789062 -10.300781 "/></g></g></g><g fill="#ffffff" fill-opacity="1"><g transform="translate(18.849273, 145.193983)"><g><path d="M 4.789062 -3.398438 L 10.917969 -3.398438 C 11.199219 -3.398438 11.328125 -3.246094 11.328125 -2.988281 L 11.328125 -0.410156 C 11.328125 -0.128906 11.199219 0 10.917969 0 L 1.699219 0 C 1.441406 0 1.289062 -0.128906 1.289062 -0.410156 L 1.289062 -20.1875 C 1.289062 -20.445312 1.441406 -20.597656 1.699219 -20.597656 L 4.378906 -20.597656 C 4.660156 -20.597656 4.789062 -20.445312 4.789062 -20.1875 Z M 4.789062 -3.398438 "/></g></g></g><g fill="#ffffff" fill-opacity="1"><g transform="translate(31.46497, 145.193983)"><g><path d="M 13.699219 0 C 14.007812 0 14.109375 -0.15625 14.058594 -0.4375 L 9.785156 -20.238281 C 9.734375 -20.496094 9.578125 -20.597656 9.347656 -20.597656 L 5.769531 -20.597656 C 5.535156 -20.597656 5.382812 -20.496094 5.328125 -20.238281 L 1.054688 -0.4375 C 0.976562 -0.15625 1.105469 0 1.390625 0 L 4.144531 0 C 4.378906 0 4.507812 -0.128906 4.558594 -0.359375 L 5.253906 -4.121094 L 9.835938 -4.121094 L 10.558594 -0.359375 C 10.609375 -0.128906 10.738281 0 10.96875 0 Z M 9.191406 -7.105469 L 5.894531 -7.105469 L 7.542969 -16.09375 Z M 9.191406 -7.105469 "/></g></g></g><g fill="#ffffff" fill-opacity="1"><g transform="translate(46.55232, 145.193983)"><g><path d="M 1.183594 -20.597656 C 0.925781 -20.597656 0.773438 -20.445312 0.773438 -20.1875 L 0.773438 -17.613281 C 0.773438 -17.355469 0.925781 -17.199219 1.183594 -17.199219 L 4.171875 -17.199219 L 4.171875 -0.410156 C 4.171875 -0.128906 4.324219 0 4.582031 0 L 7.261719 0 C 7.542969 0 7.671875 -0.128906 7.671875 -0.410156 L 7.671875 -17.199219 L 10.660156 -17.199219 C 10.941406 -17.199219 11.070312 -17.355469 11.070312 -17.613281 L 11.070312 -20.1875 C 11.070312 -20.445312 10.941406 -20.597656 10.660156 -20.597656 Z M 1.183594 -20.597656 "/></g></g></g><g fill="#ffffff" fill-opacity="1"><g transform="translate(58.395636, 145.193983)"><g><path d="M 11.585938 -20.1875 C 11.585938 -20.445312 11.433594 -20.597656 11.175781 -20.597656 L 1.699219 -20.597656 C 1.417969 -20.597656 1.289062 -20.445312 1.289062 -20.1875 L 1.289062 -0.410156 C 1.289062 -0.15625 1.417969 0 1.699219 0 L 4.378906 0 C 4.632812 0 4.789062 -0.15625 4.789062 -0.410156 L 4.789062 -8.625 L 9.628906 -8.625 C 9.886719 -8.625 10.042969 -8.753906 10.042969 -9.039062 L 10.042969 -11.613281 C 10.042969 -11.871094 9.886719 -12.023438 9.628906 -12.023438 L 4.789062 -12.023438 L 4.789062 -17.199219 L 11.175781 -17.199219 C 11.433594 -17.199219 11.585938 -17.355469 11.585938 -17.613281 Z M 11.585938 -20.1875 "/></g></g></g><g fill="#ffffff" fill-opacity="1"><g transform="translate(71.268797, 145.193983)"><g><path d="M 1.289062 -3.707031 C 1.289062 -1.289062 2.574219 0 4.996094 0 L 7.878906 0 C 10.300781 0 11.585938 -1.289062 11.585938 -3.707031 L 11.585938 -16.890625 C 11.585938 -19.3125 10.300781 -20.597656 7.878906 -20.597656 L 4.996094 -20.597656 C 2.574219 -20.597656 1.289062 -19.3125 1.289062 -16.890625 Z M 5.742188 -3.320312 C 5.074219 -3.320312 4.710938 -3.65625 4.710938 -4.351562 L 4.710938 -16.246094 C 4.710938 -16.917969 5.074219 -17.277344 5.742188 -17.277344 L 7.234375 -17.277344 C 7.90625 -17.277344 8.265625 -16.917969 8.265625 -16.246094 L 8.265625 -4.351562 C 8.265625 -3.65625 7.90625 -3.320312 7.234375 -3.320312 Z M 5.742188 -3.320312 "/></g></g></g><g fill="#ffffff" fill-opacity="1"><g transform="translate(84.141958, 145.193983)"><g><path d="M 11.871094 -16.890625 C 11.871094 -19.3125 10.582031 -20.597656 8.164062 -20.597656 L 1.699219 -20.597656 C 1.441406 -20.597656 1.289062 -20.445312 1.289062 -20.1875 L 1.289062 -0.410156 C 1.289062 -0.15625 1.441406 0 1.699219 0 L 4.378906 0 C 4.632812 0 4.789062 -0.15625 4.789062 -0.410156 L 4.789062 -6.902344 L 6.566406 -6.902344 L 8.289062 -0.359375 C 8.34375 -0.128906 8.472656 0 8.730469 0 L 11.40625 0 C 11.691406 0 11.84375 -0.15625 11.765625 -0.464844 L 9.992188 -7.210938 C 11.226562 -7.75 11.871094 -8.882812 11.871094 -10.609375 Z M 4.789062 -10.300781 L 4.789062 -17.199219 L 7.339844 -17.199219 C 8.007812 -17.199219 8.367188 -16.839844 8.367188 -16.167969 L 8.367188 -11.328125 C 8.367188 -10.660156 8.007812 -10.300781 7.339844 -10.300781 Z M 4.789062 -10.300781 "/></g></g></g><g fill="#ffffff" fill-opacity="1"><g transform="translate(97.298331, 145.193983)"><g><path d="M 12.050781 -20.597656 C 11.742188 -20.597656 11.5625 -20.445312 11.484375 -20.136719 L 8.625 -7.3125 L 5.769531 -20.136719 C 5.691406 -20.445312 5.511719 -20.597656 5.199219 -20.597656 L 1.800781 -20.597656 C 1.46875 -20.597656 1.289062 -20.417969 1.289062 -20.082031 L 1.289062 -0.515625 C 1.289062 -0.179688 1.46875 0 1.800781 0 L 4.171875 0 C 4.507812 0 4.6875 -0.179688 4.6875 -0.515625 L 4.6875 -12.101562 L 4.867188 -12.101562 L 7.414062 -0.464844 C 7.492188 -0.15625 7.671875 0 7.980469 0 L 9.242188 0 C 9.550781 0 9.734375 -0.15625 9.808594 -0.464844 L 12.359375 -12.101562 L 12.539062 -12.101562 L 12.539062 -0.515625 C 12.539062 -0.179688 12.71875 0 13.054688 0 L 15.449219 0 C 15.785156 0 15.964844 -0.179688 15.964844 -0.515625 L 15.964844 -20.082031 C 15.964844 -20.417969 15.785156 -20.597656 15.449219 -20.597656 Z M 12.050781 -20.597656 "/></g></g></g><g fill="#ffffff" fill-opacity="1"><g transform="translate(114.548375, 145.193983)"><g/></g></g><g fill="#ffffff" fill-opacity="1"><g transform="translate(120.984961, 145.193983)"><g><path d="M 1.289062 -0.410156 C 1.289062 -0.128906 1.417969 0 1.699219 0 L 7.878906 0 C 10.300781 0 11.585938 -1.289062 11.585938 -3.707031 L 11.585938 -16.863281 C 11.585938 -19.285156 10.300781 -20.597656 7.878906 -20.597656 L 1.699219 -20.597656 C 1.417969 -20.597656 1.289062 -20.445312 1.289062 -20.1875 Z M 4.789062 -3.398438 L 4.789062 -17.199219 L 7.15625 -17.199219 C 7.828125 -17.199219 8.1875 -16.839844 8.1875 -16.144531 L 8.1875 -4.429688 C 8.1875 -3.734375 7.828125 -3.398438 7.15625 -3.398438 Z M 4.789062 -3.398438 "/></g></g></g><g fill="#ffffff" fill-opacity="1"><g transform="translate(133.858122, 145.193983)"><g><path d="M 11.5625 -20.1875 C 11.5625 -20.445312 11.457031 -20.597656 11.148438 -20.597656 L 1.671875 -20.597656 C 1.441406 -20.597656 1.289062 -20.445312 1.289062 -20.1875 L 1.289062 -0.410156 C 1.289062 -0.15625 1.441406 0 1.671875 0 L 11.148438 0 C 11.457031 0 11.5625 -0.15625 11.5625 -0.410156 L 11.5625 -2.988281 C 11.5625 -3.269531 11.457031 -3.398438 11.148438 -3.398438 L 4.710938 -3.398438 L 4.710938 -8.601562 L 9.628906 -8.601562 C 9.886719 -8.601562 10.042969 -8.753906 10.042969 -9.039062 L 10.042969 -11.585938 C 10.042969 -11.871094 9.886719 -12.023438 9.628906 -12.023438 L 4.710938 -12.023438 L 4.710938 -17.175781 L 11.148438 -17.175781 C 11.457031 -17.175781 11.5625 -17.355469 11.5625 -17.613281 Z M 11.5625 -20.1875 "/></g></g></g><g fill="#ffffff" fill-opacity="1"><g transform="translate(146.705536, 145.193983)"><g/></g></g><g fill="#ffffff" fill-opacity="1"><g transform="translate(153.142122, 145.193983)"><g><path d="M 1.289062 -3.707031 C 1.289062 -1.289062 2.574219 0 4.996094 0 L 8.394531 0 C 10.789062 0 12.101562 -1.289062 12.101562 -3.707031 L 12.101562 -10.867188 C 12.101562 -11.148438 11.945312 -11.277344 11.691406 -11.277344 L 7.363281 -11.277344 C 7.082031 -11.277344 6.953125 -11.148438 6.953125 -10.867188 L 6.953125 -8.289062 C 6.953125 -8.035156 7.082031 -7.878906 7.363281 -7.878906 L 8.703125 -7.878906 L 8.703125 -4.429688 C 8.703125 -3.734375 8.34375 -3.398438 7.671875 -3.398438 L 5.820312 -3.398438 C 5.148438 -3.398438 4.789062 -3.734375 4.789062 -4.429688 L 4.789062 -16.167969 C 4.789062 -16.839844 5.125 -17.199219 5.820312 -17.199219 L 7.671875 -17.199219 C 8.34375 -17.199219 8.703125 -16.839844 8.703125 -16.167969 L 8.703125 -14.214844 C 8.703125 -13.957031 8.832031 -13.800781 9.113281 -13.800781 L 11.691406 -13.800781 C 11.945312 -13.800781 12.101562 -13.957031 12.101562 -14.214844 L 12.101562 -16.890625 C 12.101562 -19.3125 10.789062 -20.597656 8.394531 -20.597656 L 4.996094 -20.597656 C 2.574219 -20.597656 1.289062 -19.3125 1.289062 -16.890625 Z M 1.289062 -3.707031 "/></g></g></g><g fill="#ffffff" fill-opacity="1"><g transform="translate(166.530212, 145.193983)"><g><path d="M 11.5625 -20.1875 C 11.5625 -20.445312 11.457031 -20.597656 11.148438 -20.597656 L 1.671875 -20.597656 C 1.441406 -20.597656 1.289062 -20.445312 1.289062 -20.1875 L 1.289062 -0.410156 C 1.289062 -0.15625 1.441406 0 1.671875 0 L 11.148438 0 C 11.457031 0 11.5625 -0.15625 11.5625 -0.410156 L 11.5625 -2.988281 C 11.5625 -3.269531 11.457031 -3.398438 11.148438 -3.398438 L 4.710938 -3.398438 L 4.710938 -8.601562 L 9.628906 -8.601562 C 9.886719 -8.601562 10.042969 -8.753906 10.042969 -9.039062 L 10.042969 -11.585938 C 10.042969 -11.871094 9.886719 -12.023438 9.628906 -12.023438 L 4.710938 -12.023438 L 4.710938 -17.175781 L 11.148438 -17.175781 C 11.457031 -17.175781 11.5625 -17.355469 11.5625 -17.613281 Z M 11.5625 -20.1875 "/></g></g></g><g fill="#ffffff" fill-opacity="1"><g transform="translate(179.377625, 145.193983)"><g><path d="M 4.996094 -20.597656 C 2.601562 -20.597656 1.289062 -19.3125 1.289062 -16.890625 L 1.289062 -10.8125 C 1.289062 -10.324219 1.519531 -10.015625 1.984375 -9.863281 L 8.085938 -7.851562 L 8.085938 -4.429688 C 8.085938 -3.734375 7.722656 -3.398438 7.054688 -3.398438 L 5.820312 -3.398438 C 5.175781 -3.398438 4.789062 -3.734375 4.789062 -4.429688 L 4.789062 -6.410156 C 4.789062 -6.695312 4.660156 -6.824219 4.378906 -6.824219 L 1.699219 -6.824219 C 1.441406 -6.824219 1.289062 -6.695312 1.289062 -6.410156 L 1.289062 -3.707031 C 1.289062 -1.289062 2.601562 0 4.996094 0 L 7.878906 0 C 10.300781 0 11.585938 -1.289062 11.585938 -3.707031 L 11.585938 -9.65625 C 11.585938 -10.144531 11.355469 -10.429688 10.917969 -10.609375 L 4.789062 -12.617188 L 4.789062 -16.167969 C 4.789062 -16.839844 5.175781 -17.199219 5.820312 -17.199219 L 7.054688 -17.199219 C 7.75 -17.199219 8.085938 -16.839844 8.085938 -16.167969 L 8.085938 -14.160156 C 8.085938 -13.902344 8.238281 -13.75 8.496094 -13.75 L 11.175781 -13.75 C 11.457031 -13.75 11.585938 -13.902344 11.585938 -14.160156 L 11.585938 -16.890625 C 11.585938 -19.3125 10.300781 -20.597656 7.878906 -20.597656 Z M 4.996094 -20.597656 "/></g></g></g><g fill="#ffffff" fill-opacity="1"><g transform="translate(192.250787, 145.193983)"><g><path d="M 1.183594 -20.597656 C 0.925781 -20.597656 0.773438 -20.445312 0.773438 -20.1875 L 0.773438 -17.613281 C 0.773438 -17.355469 0.925781 -17.199219 1.183594 -17.199219 L 4.171875 -17.199219 L 4.171875 -0.410156 C 4.171875 -0.128906 4.324219 0 4.582031 0 L 7.261719 0 C 7.542969 0 7.671875 -0.128906 7.671875 -0.410156 L 7.671875 -17.199219 L 10.660156 -17.199219 C 10.941406 -17.199219 11.070312 -17.355469 11.070312 -17.613281 L 11.070312 -20.1875 C 11.070312 -20.445312 10.941406 -20.597656 10.660156 -20.597656 Z M 1.183594 -20.597656 "/></g></g></g><g fill="#ffffff" fill-opacity="1"><g transform="translate(204.094102, 145.193983)"><g><path d="M 1.699219 -20.597656 C 1.417969 -20.597656 1.289062 -20.445312 1.289062 -20.1875 L 1.289062 -0.410156 C 1.289062 -0.15625 1.417969 0 1.699219 0 L 4.378906 0 C 4.632812 0 4.789062 -0.15625 4.789062 -0.410156 L 4.789062 -20.1875 C 4.789062 -20.445312 4.632812 -20.597656 4.378906 -20.597656 Z M 1.699219 -20.597656 "/></g></g></g><g fill="#ffffff" fill-opacity="1"><g transform="translate(210.170233, 145.193983)"><g><path d="M 1.289062 -3.707031 C 1.289062 -1.289062 2.574219 0 4.996094 0 L 7.878906 0 C 10.300781 0 11.585938 -1.289062 11.585938 -3.707031 L 11.585938 -16.890625 C 11.585938 -19.3125 10.300781 -20.597656 7.878906 -20.597656 L 4.996094 -20.597656 C 2.574219 -20.597656 1.289062 -19.3125 1.289062 -16.890625 Z M 5.742188 -3.320312 C 5.074219 -3.320312 4.710938 -3.65625 4.710938 -4.351562 L 4.710938 -16.246094 C 4.710938 -16.917969 5.074219 -17.277344 5.742188 -17.277344 L 7.234375 -17.277344 C 7.90625 -17.277344 8.265625 -16.917969 8.265625 -16.246094 L 8.265625 -4.351562 C 8.265625 -3.65625 7.90625 -3.320312 7.234375 -3.320312 Z M 5.742188 -3.320312 "/></g></g></g><g fill="#ffffff" fill-opacity="1"><g transform="translate(223.043406, 145.193983)"><g><path d="M 9.191406 -20.597656 C 8.910156 -20.597656 8.78125 -20.445312 8.78125 -20.1875 L 8.78125 -9.320312 L 8.625 -9.320312 L 4.710938 -20.265625 C 4.632812 -20.496094 4.480469 -20.597656 4.25 -20.597656 L 1.699219 -20.597656 C 1.441406 -20.597656 1.289062 -20.445312 1.289062 -20.1875 L 1.289062 -0.410156 C 1.289062 -0.15625 1.441406 0 1.699219 0 L 4.378906 0 C 4.660156 0 4.789062 -0.15625 4.789062 -0.410156 L 4.789062 -11.328125 L 4.917969 -11.328125 L 8.855469 -0.335938 C 8.933594 -0.101562 9.089844 0 9.320312 0 L 11.871094 0 C 12.128906 0 12.28125 -0.15625 12.28125 -0.410156 L 12.28125 -20.1875 C 12.28125 -20.445312 12.128906 -20.597656 11.871094 -20.597656 Z M 9.191406 -20.597656 "/></g></g></g><g fill="#ffffff" fill-opacity="1"><g transform="translate(236.611706, 145.193983)"><g/></g></g><g fill="#ffffff" fill-opacity="1"><g transform="translate(243.048304, 145.193983)"><g><path d="M 1.289062 -0.410156 C 1.289062 -0.128906 1.417969 0 1.699219 0 L 7.878906 0 C 10.300781 0 11.585938 -1.289062 11.585938 -3.707031 L 11.585938 -16.863281 C 11.585938 -19.285156 10.300781 -20.597656 7.878906 -20.597656 L 1.699219 -20.597656 C 1.417969 -20.597656 1.289062 -20.445312 1.289062 -20.1875 Z M 4.789062 -3.398438 L 4.789062 -17.199219 L 7.15625 -17.199219 C 7.828125 -17.199219 8.1875 -16.839844 8.1875 -16.144531 L 8.1875 -4.429688 C 8.1875 -3.734375 7.828125 -3.398438 7.15625 -3.398438 Z M 4.789062 -3.398438 "/></g></g></g><g fill="#ffffff" fill-opacity="1"><g transform="translate(255.921454, 145.193983)"><g><path d="M 11.5625 -20.1875 C 11.5625 -20.445312 11.457031 -20.597656 11.148438 -20.597656 L 1.671875 -20.597656 C 1.441406 -20.597656 1.289062 -20.445312 1.289062 -20.1875 L 1.289062 -0.410156 C 1.289062 -0.15625 1.441406 0 1.671875 0 L 11.148438 0 C 11.457031 0 11.5625 -0.15625 11.5625 -0.410156 L 11.5625 -2.988281 C 11.5625 -3.269531 11.457031 -3.398438 11.148438 -3.398438 L 4.710938 -3.398438 L 4.710938 -8.601562 L 9.628906 -8.601562 C 9.886719 -8.601562 10.042969 -8.753906 10.042969 -9.039062 L 10.042969 -11.585938 C 10.042969 -11.871094 9.886719 -12.023438 9.628906 -12.023438 L 4.710938 -12.023438 L 4.710938 -17.175781 L 11.148438 -17.175781 C 11.457031 -17.175781 11.5625 -17.355469 11.5625 -17.613281 Z M 11.5625 -20.1875 "/></g></g></g><g fill="#ffffff" fill-opacity="1"><g transform="translate(268.768868, 145.193983)"><g><path d="M 4.996094 -20.597656 C 2.601562 -20.597656 1.289062 -19.3125 1.289062 -16.890625 L 1.289062 -10.8125 C 1.289062 -10.324219 1.519531 -10.015625 1.984375 -9.863281 L 8.085938 -7.851562 L 8.085938 -4.429688 C 8.085938 -3.734375 7.722656 -3.398438 7.054688 -3.398438 L 5.820312 -3.398438 C 5.175781 -3.398438 4.789062 -3.734375 4.789062 -4.429688 L 4.789062 -6.410156 C 4.789062 -6.695312 4.660156 -6.824219 4.378906 -6.824219 L 1.699219 -6.824219 C 1.441406 -6.824219 1.289062 -6.695312 1.289062 -6.410156 L 1.289062 -3.707031 C 1.289062 -1.289062 2.601562 0 4.996094 0 L 7.878906 0 C 10.300781 0 11.585938 -1.289062 11.585938 -3.707031 L 11.585938 -9.65625 C 11.585938 -10.144531 11.355469 -10.429688 10.917969 -10.609375 L 4.789062 -12.617188 L 4.789062 -16.167969 C 4.789062 -16.839844 5.175781 -17.199219 5.820312 -17.199219 L 7.054688 -17.199219 C 7.75 -17.199219 8.085938 -16.839844 8.085938 -16.167969 L 8.085938 -14.160156 C 8.085938 -13.902344 8.238281 -13.75 8.496094 -13.75 L 11.175781 -13.75 C 11.457031 -13.75 11.585938 -13.902344 11.585938 -14.160156 L 11.585938 -16.890625 C 11.585938 -19.3125 10.300781 -20.597656 7.878906 -20.597656 Z M 4.996094 -20.597656 "/></g></g></g><g fill="#ffffff" fill-opacity="1"><g transform="translate(281.642018, 145.193983)"><g/></g></g><g fill="#ffffff" fill-opacity="1"><g transform="translate(288.078615, 145.193983)"><g><path d="M 4.996094 -20.597656 C 2.601562 -20.597656 1.289062 -19.3125 1.289062 -16.890625 L 1.289062 -10.8125 C 1.289062 -10.324219 1.519531 -10.015625 1.984375 -9.863281 L 8.085938 -7.851562 L 8.085938 -4.429688 C 8.085938 -3.734375 7.722656 -3.398438 7.054688 -3.398438 L 5.820312 -3.398438 C 5.175781 -3.398438 4.789062 -3.734375 4.789062 -4.429688 L 4.789062 -6.410156 C 4.789062 -6.695312 4.660156 -6.824219 4.378906 -6.824219 L 1.699219 -6.824219 C 1.441406 -6.824219 1.289062 -6.695312 1.289062 -6.410156 L 1.289062 -3.707031 C 1.289062 -1.289062 2.601562 0 4.996094 0 L 7.878906 0 C 10.300781 0 11.585938 -1.289062 11.585938 -3.707031 L 11.585938 -9.65625 C 11.585938 -10.144531 11.355469 -10.429688 10.917969 -10.609375 L 4.789062 -12.617188 L 4.789062 -16.167969 C 4.789062 -16.839844 5.175781 -17.199219 5.820312 -17.199219 L 7.054688 -17.199219 C 7.75 -17.199219 8.085938 -16.839844 8.085938 -16.167969 L 8.085938 -14.160156 C 8.085938 -13.902344 8.238281 -13.75 8.496094 -13.75 L 11.175781 -13.75 C 11.457031 -13.75 11.585938 -13.902344 11.585938 -14.160156 L 11.585938 -16.890625 C 11.585938 -19.3125 10.300781 -20.597656 7.878906 -20.597656 Z M 4.996094 -20.597656 "/></g></g></g><g fill="#ffffff" fill-opacity="1"><g transform="translate(300.951765, 145.193983)"><g><path d="M 1.183594 -20.597656 C 0.925781 -20.597656 0.773438 -20.445312 0.773438 -20.1875 L 0.773438 -17.613281 C 0.773438 -17.355469 0.925781 -17.199219 1.183594 -17.199219 L 4.171875 -17.199219 L 4.171875 -0.410156 C 4.171875 -0.128906 4.324219 0 4.582031 0 L 7.261719 0 C 7.542969 0 7.671875 -0.128906 7.671875 -0.410156 L 7.671875 -17.199219 L 10.660156 -17.199219 C 10.941406 -17.199219 11.070312 -17.355469 11.070312 -17.613281 L 11.070312 -20.1875 C 11.070312 -20.445312 10.941406 -20.597656 10.660156 -20.597656 Z M 1.183594 -20.597656 "/></g></g></g><g fill="#ffffff" fill-opacity="1"><g transform="translate(312.79508, 145.193983)"><g><path d="M 13.699219 0 C 14.007812 0 14.109375 -0.15625 14.058594 -0.4375 L 9.785156 -20.238281 C 9.734375 -20.496094 9.578125 -20.597656 9.347656 -20.597656 L 5.769531 -20.597656 C 5.535156 -20.597656 5.382812 -20.496094 5.328125 -20.238281 L 1.054688 -0.4375 C 0.976562 -0.15625 1.105469 0 1.390625 0 L 4.144531 0 C 4.378906 0 4.507812 -0.128906 4.558594 -0.359375 L 5.253906 -4.121094 L 9.835938 -4.121094 L 10.558594 -0.359375 C 10.609375 -0.128906 10.738281 0 10.96875 0 Z M 9.191406 -7.105469 L 5.894531 -7.105469 L 7.542969 -16.09375 Z M 9.191406 -7.105469 "/></g></g></g><g fill="#ffffff" fill-opacity="1"><g transform="translate(327.88243, 145.193983)"><g><path d="M 1.289062 -3.707031 C 1.289062 -1.289062 2.574219 0 4.996094 0 L 8.394531 0 C 10.789062 0 12.101562 -1.289062 12.101562 -3.707031 L 12.101562 -10.867188 C 12.101562 -11.148438 11.945312 -11.277344 11.691406 -11.277344 L 7.363281 -11.277344 C 7.082031 -11.277344 6.953125 -11.148438 6.953125 -10.867188 L 6.953125 -8.289062 C 6.953125 -8.035156 7.082031 -7.878906 7.363281 -7.878906 L 8.703125 -7.878906 L 8.703125 -4.429688 C 8.703125 -3.734375 8.34375 -3.398438 7.671875 -3.398438 L 5.820312 -3.398438 C 5.148438 -3.398438 4.789062 -3.734375 4.789062 -4.429688 L 4.789062 -16.167969 C 4.789062 -16.839844 5.125 -17.199219 5.820312 -17.199219 L 7.671875 -17.199219 C 8.34375 -17.199219 8.703125 -16.839844 8.703125 -16.167969 L 8.703125 -14.214844 C 8.703125 -13.957031 8.832031 -13.800781 9.113281 -13.800781 L 11.691406 -13.800781 C 11.945312 -13.800781 12.101562 -13.957031 12.101562 -14.214844 L 12.101562 -16.890625 C 12.101562 -19.3125 10.789062 -20.597656 8.394531 -20.597656 L 4.996094 -20.597656 C 2.574219 -20.597656 1.289062 -19.3125 1.289062 -16.890625 Z M 1.289062 -3.707031 "/></g></g></g><g fill="#ffffff" fill-opacity="1"><g transform="translate(341.270532, 145.193983)"><g><path d="M 11.5625 -20.1875 C 11.5625 -20.445312 11.457031 -20.597656 11.148438 -20.597656 L 1.671875 -20.597656 C 1.441406 -20.597656 1.289062 -20.445312 1.289062 -20.1875 L 1.289062 -0.410156 C 1.289062 -0.15625 1.441406 0 1.671875 0 L 11.148438 0 C 11.457031 0 11.5625 -0.15625 11.5625 -0.410156 L 11.5625 -2.988281 C 11.5625 -3.269531 11.457031 -3.398438 11.148438 -3.398438 L 4.710938 -3.398438 L 4.710938 -8.601562 L 9.628906 -8.601562 C 9.886719 -8.601562 10.042969 -8.753906 10.042969 -9.039062 L 10.042969 -11.585938 C 10.042969 -11.871094 9.886719 -12.023438 9.628906 -12.023438 L 4.710938 -12.023438 L 4.710938 -17.175781 L 11.148438 -17.175781 C 11.457031 -17.175781 11.5625 -17.355469 11.5625 -17.613281 Z M 11.5625 -20.1875 "/></g></g></g><g fill="#ffffff" fill-opacity="1"><g transform="translate(354.117946, 145.193983)"><g><path d="M 4.996094 -20.597656 C 2.601562 -20.597656 1.289062 -19.3125 1.289062 -16.890625 L 1.289062 -10.8125 C 1.289062 -10.324219 1.519531 -10.015625 1.984375 -9.863281 L 8.085938 -7.851562 L 8.085938 -4.429688 C 8.085938 -3.734375 7.722656 -3.398438 7.054688 -3.398438 L 5.820312 -3.398438 C 5.175781 -3.398438 4.789062 -3.734375 4.789062 -4.429688 L 4.789062 -6.410156 C 4.789062 -6.695312 4.660156 -6.824219 4.378906 -6.824219 L 1.699219 -6.824219 C 1.441406 -6.824219 1.289062 -6.695312 1.289062 -6.410156 L 1.289062 -3.707031 C 1.289062 -1.289062 2.601562 0 4.996094 0 L 7.878906 0 C 10.300781 0 11.585938 -1.289062 11.585938 -3.707031 L 11.585938 -9.65625 C 11.585938 -10.144531 11.355469 -10.429688 10.917969 -10.609375 L 4.789062 -12.617188 L 4.789062 -16.167969 C 4.789062 -16.839844 5.175781 -17.199219 5.820312 -17.199219 L 7.054688 -17.199219 C 7.75 -17.199219 8.085938 -16.839844 8.085938 -16.167969 L 8.085938 -14.160156 C 8.085938 -13.902344 8.238281 -13.75 8.496094 -13.75 L 11.175781 -13.75 C 11.457031 -13.75 11.585938 -13.902344 11.585938 -14.160156 L 11.585938 -16.890625 C 11.585938 -19.3125 10.300781 -20.597656 7.878906 -20.597656 Z M 4.996094 -20.597656 "/></g></g></g></svg>