<svg width="1160" height="442" viewBox="0 0 1160 442" fill="none" xmlns="http://www.w3.org/2000/svg">
<rect y="0.252441" width="1160" height="441" fill="black"/>
<path d="M-22 40.8194C137.365 97.9585 223.269 173.318 272.812 234.968C314.112 286.365 313.379 307.39 357.233 345.737C452.4 428.947 634.704 486.329 723.059 414.821C766.582 379.596 750.483 334.956 771.3 250.45C790.029 174.432 838.452 69.8794 973.643 -43.7476" stroke="white" stroke-opacity="0.07" stroke-width="5" stroke-miterlimit="10"/>
<path d="M-21.6812 59.2546C133.328 108.361 218.372 179.256 267.89 236.952C309.554 285.512 312.942 304.931 359.523 342.618C457.239 421.679 628.446 476.721 716.924 409.999C762.499 375.634 752.132 331.758 776.524 247.501C798 173.321 847.411 70.5562 980.272 -42.0516" stroke="white" stroke-opacity="0.07" stroke-width="5" stroke-miterlimit="10"/>
<path d="M-21.3625 77.6871C129.288 118.764 213.539 185.212 262.976 238.937C305.092 284.705 312.43 302.474 361.821 339.5C461.871 414.502 622.46 467.24 710.803 405.18C758.528 371.65 753.715 328.604 781.759 244.553C805.896 172.23 856.382 71.2407 986.921 -40.343" stroke="white" stroke-opacity="0.07" stroke-width="5" stroke-miterlimit="10"/>
<path d="M-21.0437 96.1222C125.247 129.169 208.789 191.186 258.062 240.937C300.684 283.947 311.835 300.035 364.132 336.379C466.316 407.427 616.733 457.903 704.688 400.358C754.663 367.666 755.226 325.486 787.003 241.603C813.688 171.155 865.361 71.9252 993.558 -38.642" stroke="white" stroke-opacity="0.07" stroke-width="5" stroke-miterlimit="10"/>
<path d="M-20.7239 114.555C121.223 139.567 204.138 197.16 253.15 242.908C296.351 283.229 311.193 297.618 366.414 333.26C470.555 400.457 611.214 448.718 698.549 395.536C750.874 363.674 756.629 322.388 792.222 238.653C821.37 170.085 874.318 72.6071 1000.18 -36.9282" stroke="white" stroke-opacity="0.07" stroke-width="5" stroke-miterlimit="10"/>
<path d="M-20.405 132.987C117.171 149.969 199.592 203.137 248.236 244.893C292.11 282.555 310.445 295.238 368.712 330.139C474.652 393.602 605.921 439.69 692.422 390.716C747.193 359.705 757.936 319.305 797.454 235.703C828.967 169.012 883.286 73.2915 1006.82 -35.2401" stroke="white" stroke-opacity="0.07" stroke-width="5" stroke-miterlimit="10"/>
<path d="M-20.0862 151.42C113.131 160.359 195.173 209.088 243.322 246.877C287.967 281.916 309.649 292.899 371.008 327.021C478.618 386.859 600.818 430.825 686.296 385.894C743.601 355.772 759.183 316.222 802.687 232.756C836.475 167.929 892.266 73.976 1013.45 -33.5365" stroke="white" stroke-opacity="0.07" stroke-width="5" stroke-miterlimit="10"/>
<path d="M-19.7561 169.855C109.102 170.772 190.902 215.01 238.42 248.862C283.949 281.298 308.819 290.61 373.315 323.902C482.476 380.232 595.898 422.12 680.181 381.072C740.109 351.887 760.329 313.134 807.93 229.806C843.891 166.833 901.222 74.6681 1020.09 -31.8356" stroke="white" stroke-opacity="0.07" stroke-width="5" stroke-miterlimit="10"/>
<path d="M-19.4487 188.287C105.05 181.174 186.759 220.877 233.495 250.849C280.044 280.69 307.893 288.393 375.602 320.781C486.229 373.716 591.108 413.58 674.044 376.252C736.684 348.066 761.358 310.021 813.151 226.856C851.23 165.715 910.189 75.3425 1026.74 -30.1345" stroke="white" stroke-opacity="0.07" stroke-width="5" stroke-miterlimit="10"/>
<path d="M-19.1301 206.712C101.013 191.569 182.779 226.659 228.581 252.826C276.26 280.062 306.945 286.202 377.898 317.655C489.898 367.3 586.439 405.187 667.917 371.423C733.33 344.317 762.306 306.869 818.383 223.899C858.491 164.56 919.16 76.0193 1033.36 -28.4412" stroke="white" stroke-opacity="0.07" stroke-width="5" stroke-miterlimit="10"/>
<path d="M-18.8101 225.155C96.9885 201.98 178.955 232.36 223.671 254.818C272.629 279.408 305.963 284.105 380.198 314.542C493.519 361.005 581.88 396.966 661.792 366.611C730.056 340.68 763.16 303.689 823.617 220.956C865.681 163.391 928.129 76.7114 1040 -26.7274" stroke="white" stroke-opacity="0.07" stroke-width="5" stroke-miterlimit="10"/>
<path d="M-18.4912 243.588C92.934 212.38 175.277 237.93 218.758 256.802C269.134 278.67 304.96 282.072 382.493 311.423C497.097 354.801 577.403 388.882 655.666 361.789C726.843 337.15 763.928 300.451 828.849 218.009C872.813 162.177 937.097 77.3934 1046.63 -25.0289" stroke="white" stroke-opacity="0.07" stroke-width="5" stroke-miterlimit="10"/>
<path d="M-18.1726 262.023C88.8936 222.782 171.725 243.358 213.844 258.789C265.772 277.814 303.908 280.108 384.792 308.305C500.645 348.692 572.983 380.942 649.542 356.967C723.677 333.751 764.611 297.154 834.082 215.059C879.89 160.926 946.064 78.0778 1053.27 -23.328" stroke="white" stroke-opacity="0.07" stroke-width="5" stroke-miterlimit="10"/>
<path d="M-17.8538 280.455C84.8564 233.185 168.28 248.627 208.93 260.774C262.528 276.79 302.851 278.218 387.082 305.183C504.168 342.667 568.598 373.121 643.41 352.147C720.57 330.502 765.209 293.785 839.308 212.109C886.924 159.631 955.032 78.7546 1059.91 -21.6194" stroke="white" stroke-opacity="0.07" stroke-width="5" stroke-miterlimit="10"/>
<path d="M-17.5349 298.888C80.8162 243.585 164.904 253.725 204.005 262.758C259.359 275.544 301.77 276.4 389.375 302.065C507.688 336.726 564.231 365.451 637.278 347.325C717.49 327.422 765.737 290.342 844.535 209.152C893.906 158.285 963.991 79.4366 1066.53 -19.9336" stroke="white" stroke-opacity="0.07" stroke-width="5" stroke-miterlimit="10"/>
<path d="M-17.2163 317.323C76.7903 253.988 161.556 258.649 199.103 264.743C256.255 274.019 300.704 274.655 391.682 298.944C511.216 330.87 559.88 357.889 631.164 342.506C714.449 324.528 766.214 286.828 849.778 206.212C900.885 156.908 972.97 80.1288 1073.18 -18.2224" stroke="white" stroke-opacity="0.07" stroke-width="5" stroke-miterlimit="10"/>
<path d="M-16.8828 335.755C72.7504 264.39 158.596 272.64 194.204 266.73C252.445 257.06 299.641 272.985 393.995 295.826C514.765 325.067 555.501 350.439 625.038 337.684C711.409 321.849 766.625 283.209 855.011 203.262C907.827 155.486 981.938 80.8132 1079.82 -16.5112" stroke="white" stroke-opacity="0.07" stroke-width="5" stroke-miterlimit="10"/>
<path d="M-16.5776 354.188C68.6995 274.793 155.569 275.628 189.277 268.714C248.357 256.598 298.55 271.383 396.277 292.707C518.325 319.346 551.071 343.098 618.912 332.862C708.361 319.382 766.988 279.513 860.244 200.307C914.759 154.01 990.907 81.49 1086.45 -14.8256" stroke="white" stroke-opacity="0.07" stroke-width="5" stroke-miterlimit="10"/>
<path d="M-16.2588 372.623C64.6594 285.193 152.143 278.323 184.363 270.699C244.506 256.47 297.478 269.853 398.576 289.599C521.906 313.673 546.585 335.842 612.786 328.055C705.29 317.172 767.309 275.738 865.477 197.375C921.678 152.513 999.878 82.1873 1093.09 -13.1067" stroke="white" stroke-opacity="0.07" stroke-width="5" stroke-miterlimit="10"/>
<path d="M-15.9399 391.056C60.6193 295.596 147.284 276.89 179.452 272.683C242.814 264.416 296.423 268.388 400.874 286.475C525.523 308.049 542.022 328.66 606.663 323.228C702.169 315.193 767.597 271.841 870.715 194.412C928.603 150.942 1008.85 82.8642 1099.73 -11.4183" stroke="white" stroke-opacity="0.07" stroke-width="5" stroke-miterlimit="10"/>
<path d="M-15.6211 409.488C56.5791 305.998 143.279 281.227 174.536 274.67C238.799 261.193 295.374 266.988 403.167 283.354C529.163 302.476 537.356 321.558 600.533 318.406C698.979 313.497 767.861 267.887 875.941 191.47C935.519 149.346 1017.81 83.5538 1106.36 -9.70972" stroke="white" stroke-opacity="0.07" stroke-width="5" stroke-miterlimit="10"/>
<path d="M-15.3025 427.923C52.5417 316.401 139 285.568 169.622 276.655C234.417 257.786 294.345 265.649 405.466 280.231C532.847 296.944 532.58 314.511 594.41 313.581C695.698 312.049 768.105 263.826 881.176 188.517C942.446 147.714 1026.78 84.2305 1113 -8.01392" stroke="white" stroke-opacity="0.07" stroke-width="5" stroke-miterlimit="10"/>
</svg>
