<svg width="596" height="564" viewBox="0 0 596 564" fill="none" xmlns="http://www.w3.org/2000/svg">
<path d="M339.911 132.241C329.645 118.008 309.557 119.977 293.659 120.081C256.612 120.315 102.897 120.135 92.1036 120.645C75.4782 121.454 58.7842 127.828 56.0843 143.487C54.6271 151.947 55.9175 160.991 56.2512 169.516C57.5922 204.027 58.5935 246.719 63.0844 277.471C64.3032 285.835 65.9034 294.219 71.4015 301.131C80.0793 312.044 97.2769 315.879 111.706 316.108C111.876 316.376 243.908 319.317 291.635 315.933C305.519 314.946 322.428 313.959 331.788 302.713C336.478 297.073 336.878 288.943 337.817 282.096C341.193 257.528 343.446 215.953 346.396 171.368C347.239 158.636 347.895 143.304 339.911 132.241ZM343.562 163.261C343.464 168.36 339.45 228.648 339.187 232.306C338.293 244.674 335.418 283.585 331.702 295.736C328.027 307.73 311.518 310.682 300.301 311.81C290.798 312.783 281.229 313.341 271.672 313.635C222.622 315.135 116.078 314.819 111.81 314.712C94.5263 313.959 75.1355 309.165 68.6212 292.197C66.2116 284.484 64.8821 276.505 64.6667 268.464C61.4156 231.457 61.9162 220.287 59.4249 163.323C59.0733 155.168 57.3151 145.58 61.2666 137.957C69.9324 121.291 96.1057 123.629 112.141 123.462C131.002 123.268 291.066 123.155 300.975 123.079C309.784 123.011 319.293 122.588 327.497 126.206C342.295 132.723 343.818 149.66 343.562 163.25V163.261Z" fill="white"/>
<path d="M201.213 327.261C203.523 332.196 212.171 329.7 209.152 323.11C208.899 322.545 208.516 322.039 208.031 321.631C207.546 321.222 206.972 320.921 206.349 320.748C205.726 320.574 205.071 320.534 204.429 320.63C203.788 320.725 203.177 320.954 202.641 321.3C200.802 322.492 199.193 325.696 201.27 327.399C201.353 327.479 201.46 327.533 201.576 327.555C201.692 327.577 201.812 327.566 201.922 327.523C202.031 327.48 202.124 327.407 202.19 327.314C202.255 327.22 202.29 327.111 202.289 326.999C202.417 325.696 202.146 324.308 203.294 323.333C203.583 323.057 203.934 322.846 204.321 322.716C204.708 322.585 205.121 322.539 205.53 322.58C205.939 322.621 206.332 322.749 206.682 322.953C207.031 323.158 207.327 323.434 207.549 323.761C208.019 324.383 208.222 325.151 208.118 325.909C208.014 326.667 207.611 327.36 206.989 327.848C206.184 328.273 205.239 328.393 204.344 328.184C203.449 327.974 202.672 327.451 202.17 326.72C201.795 326.133 200.927 326.652 201.213 327.261Z" fill="white"/>
<path d="M189.439 357.638C194.087 358.387 198.802 358.69 203.514 358.543C208.66 358.687 213.831 358.853 218.974 358.825C219.314 358.81 219.634 358.671 219.869 358.439C220.104 358.206 220.234 357.896 220.234 357.574C220.234 357.253 220.104 356.943 219.869 356.71C219.634 356.478 219.314 356.339 218.974 356.324C213.831 356.126 208.66 356.112 203.514 356.09C198.819 355.785 194.103 355.933 189.439 356.533C189.314 356.569 189.205 356.642 189.127 356.742C189.049 356.841 189.007 356.961 189.007 357.085C189.007 357.209 189.049 357.329 189.127 357.429C189.205 357.528 189.314 357.602 189.439 357.638Z" fill="white"/>
<path d="M362.727 120.49C359.331 113.353 353.114 107.761 345.41 104.915C335.597 101.275 324.666 101.85 314.328 101.94C270.296 102.324 89.529 102.197 77.0875 102.685C67.3743 102.805 57.8594 105.303 49.4689 109.935C30.6949 121.156 34.9801 139.872 35.7311 160.861C37.1734 201.215 38.273 251.304 43.0529 287.169C44.3105 296.613 45.6962 306.179 51.0572 314.455C60.629 329.224 80.0109 334.799 98.2455 334.728C98.9488 334.728 139.486 335.648 185.974 335.975C186.045 338.296 186.531 340.859 186.805 343.307C185.792 343.191 158.495 343.837 150.473 344.917C150.306 344.949 150.149 345.015 150.013 345.11C149.876 345.206 149.764 345.33 149.684 345.471C149.603 345.613 149.557 345.77 149.548 345.93C149.539 346.091 149.568 346.251 149.633 346.4C145.52 349.688 141.885 353.766 138.136 357.362C133.523 361.764 128.656 366.036 124.347 370.703C124.169 370.879 124.07 371.115 124.073 371.359C124.076 371.603 124.179 371.836 124.362 372.009C124.544 372.182 124.791 372.28 125.049 372.282C125.307 372.285 125.556 372.192 125.742 372.023C130.57 367.829 134.956 363.12 139.498 358.65C143.276 354.925 147.606 351.318 151.012 347.246C162.975 346.235 174.987 345.824 186.996 346.014C187.02 347.867 186.915 350.061 188.858 351C189.156 351.149 189.678 351.045 189.734 350.658C189.877 348.21 189.771 345.755 189.416 343.326C189.358 340.824 188.869 338.348 187.97 335.994C198.806 336.068 209.936 336.104 220.935 336.087C219.521 340.306 219.316 344.803 220.339 349.122C220.383 349.257 220.472 349.375 220.592 349.459C220.713 349.543 220.859 349.588 221.008 349.588C221.158 349.588 221.303 349.543 221.424 349.459C221.544 349.375 221.633 349.257 221.677 349.122C222.064 347.895 222.295 346.629 222.365 345.351C228.463 346.121 233.514 345.582 249.939 346.553C252.434 346.702 255.992 346.736 258.093 346.725C261.184 350.755 264.824 354.382 268.919 357.511C272.926 361.238 277.149 364.752 281.569 368.035C282.636 368.797 283.953 367.13 282.994 366.287C278.741 362.607 274.271 359.164 270.028 355.461C266.793 352.185 263.341 349.107 259.693 346.245C259.751 346.078 259.747 345.897 259.683 345.733C259.619 345.568 259.497 345.428 259.338 345.337C256.824 344.443 254.143 344.044 251.459 344.164C247.907 343.952 244.352 343.788 240.794 343.673C234.721 343.103 228.615 342.901 222.514 343.07C222.681 340.571 223.14 338.262 223.161 336.085C254.549 336.02 284.645 335.504 303.529 334.085C319.555 332.878 339.167 331.996 350.142 319.139C355.822 312.493 356.355 303.297 357.47 295.124C362.181 260.624 364.154 207.321 367.134 167.835C368.329 152.342 369.735 135.007 362.727 120.49ZM364.661 156.022C364.485 160.788 360.059 229.703 359.595 236.578C358.587 251.053 355.285 296.218 351.119 310.372C347.096 324.046 329.309 328.048 316.405 329.531C305.35 330.806 294.16 331.477 283.029 331.832C226.436 333.648 100.609 332.985 98.3617 332.907C77.8355 332.061 56.001 325.772 48.9593 305.479C45.8452 296.509 45.4697 286.704 44.683 277.341C41.5719 240.193 41.7805 228.321 39.021 155.878C38.6455 146.276 36.8456 135.611 39.7362 126.243C46.5306 104.269 77.1262 105.708 96.0045 105.474C118.331 105.192 309.212 104.977 320.61 104.91C330.879 104.859 341.941 105.107 350.64 110.978C365.051 120.696 365.218 140.969 364.661 156.014V156.022Z" fill="white"/>
<path d="M17.4367 447.918C19.2396 445.501 61.3977 400.541 63.4926 398.305C64.8114 396.825 66.4883 395.667 68.3808 394.931C70.2733 394.194 72.3257 393.901 74.3637 394.075C103.079 393.917 131.803 393.745 160.518 394.182C214.099 395.012 331.964 392.169 335.915 392.208C339.789 392.245 344.787 391.402 347.743 394.092C350.562 396.661 379.724 434.193 389.919 444.246C391.504 445.805 394.004 443.434 392.428 441.871C382.448 432.021 357.532 400.279 353.462 395.48C352 393.24 350.074 391.304 347.8 389.789C342.713 387.389 283.703 390.316 258.477 390.858C228.617 391.503 236.297 391.001 77.5284 390.962C70.5046 390.962 65.5339 391.244 60.906 396.684C55.5837 402.947 17.7556 444.466 16.06 447.148C15.5325 447.999 16.8556 448.696 17.4367 447.918Z" fill="white"/>
<path d="M387.3 458.591C389.904 454.401 395.295 447.543 392.709 446.747C388.709 445.54 18.1613 448.772 18.1613 448.772C18.1613 448.772 11.0331 448.947 17.8633 454.962C24.6934 460.977 25.0153 462.514 37.3465 462.063C49.6777 461.612 352.21 460.698 360.644 460.825C369.077 460.952 385.649 461.245 387.3 458.591Z" fill="white"/>
<path d="M56.7935 419.545C54.1711 422.619 42.5282 433.944 42.0574 436.747C41.994 436.996 42.0145 437.257 42.1161 437.494C42.2176 437.73 42.3952 437.931 42.6236 438.067C44.2149 439.032 92.5267 438.067 103.293 438.031C126.037 437.94 287.294 438.877 291.373 438.927C294.493 438.964 296.701 438.338 295.173 435.03C289.961 423.75 284.784 412.47 279.489 401.224C278.142 398.373 277.066 397.989 273.827 398.003C273.827 398.003 80.3742 398.003 74.2563 397.936C73.9734 397.95 73.7069 398.066 73.5119 398.26C73.3168 398.455 73.2081 398.713 73.2081 398.981C73.2081 399.249 73.3168 399.507 73.5119 399.701C73.7069 399.895 73.9734 400.011 74.2563 400.025C112.499 400.378 264.914 399.927 275.645 400.53C276.512 400.581 275.347 398.672 292.38 435.016C292.619 435.521 292.556 436.426 289.734 436.491C287.776 436.53 100.671 435.783 57.8156 436.085C55.5389 436.085 45.8778 436.468 45.9493 435.927C46.1877 434.111 61.0787 419.137 73.7855 400.711C74.2235 400.076 73.1895 399.557 72.7365 400.13C72.7127 400.121 62.6134 412.721 56.7935 419.545Z" fill="white"/>
<path d="M300.364 430.281C301.342 432.997 302.596 435.617 304.109 438.104C305.003 439.263 305.599 439.249 307.089 439.294C315.398 439.539 338.511 438.541 361.623 438.97C363.152 439.001 369.455 439.911 369.371 437.56C369.249 434.108 358.17 421.914 342.894 399.357C341.151 396.779 340.4 396.622 336.952 396.765C331.314 396.991 298.105 398.122 287.144 398.457C285.687 398.503 285.678 400.651 287.144 400.606C343.708 398.914 339.354 398.785 339.7 398.993C340.814 399.664 341.932 402.259 342.647 403.297C344.241 405.589 363.644 432.926 365.405 435.318C366.457 436.742 365.429 436.66 363.319 436.62C360.935 436.57 309.164 436.886 307.48 436.871C305.394 436.846 304.375 432.997 303.522 431.277C292.598 409.179 290.857 405.775 287.871 401.165C287.401 400.44 286.182 400.66 286.516 401.399C291.742 412.978 295.616 420.121 300.364 430.281Z" fill="white"/>
<path d="M169.527 183.018C168.55 170.974 173.997 158.597 179.361 153.408C184.897 148.515 192.126 145.695 199.698 145.474C207.27 145.254 214.668 147.648 220.512 152.209C228.311 158.656 233.368 167.566 234.738 177.279C235.319 179.586 237.42 185.415 229.076 185.948C228.48 185.987 226.773 184.563 226.534 184.126C224.15 179.752 223.754 174.71 221.74 170.187C219.357 164.414 214.804 159.679 208.955 156.891C206.025 155.557 202.766 155.003 199.529 155.289C196.291 155.574 193.197 156.689 190.578 158.512C185.783 162.586 182.664 168.131 181.769 174.169C179.045 190.615 185.84 202.267 187.568 202.969C188.548 203.289 189.588 203.407 190.619 203.316C198.814 203.127 231.401 201.906 239.158 202.056C239.98 202.073 241.813 202.338 242.328 203.691C244.185 208.553 243.133 220.358 243.032 221.565C242.635 226.218 239.623 223.203 234.586 226.201C217.749 224.227 211.858 223.434 208.66 224.308C208 224.459 207.379 224.735 206.836 225.12C206.292 225.505 205.837 225.99 205.499 226.547C205.062 227.743 205.133 229.052 205.698 230.199C206.263 231.345 207.278 232.238 208.526 232.689C210.97 233.716 213.911 234.04 215.878 235.041C215.711 238.143 216.101 239.322 215.941 242.435C215.839 243.219 215.921 244.014 216.179 244.765C216.468 245.309 216.898 245.776 217.429 246.121C217.96 246.466 218.574 246.679 219.216 246.739C220.499 246.842 221.792 246.737 223.039 246.428C223.006 242.546 223.691 238.689 225.062 235.03C227.539 235.422 230.31 236.372 232.786 236.764C233.084 236.826 230.614 244.567 231.076 247.695C231.243 248.803 233.21 248.501 233.4 248.727C236.294 252.201 237.4 252.912 239.399 253.371C241.646 253.89 241.989 254.855 242.409 257.404C245.389 275.373 226.18 291.602 206.408 291.926C195.328 292.115 176.146 291.926 162.262 272.976C159.1 268.857 157.333 263.926 157.196 258.836C157.552 257.617 158.143 256.469 158.939 255.452C163.728 251.121 167.48 247.365 166.833 239.443C166.3 232.87 163.457 226.923 156.829 225.747C156.257 225.651 154.949 223.787 154.862 223.237C153.905 217.424 153.763 211.517 154.439 205.668C154.701 205.214 155.105 204.847 155.596 204.619C159.329 203.866 168.77 204.385 172.48 203.722C172.836 203.371 173.109 202.953 173.28 202.494C173.452 202.036 173.518 201.548 173.476 201.063C171.279 195.251 169.95 189.178 169.527 183.018Z" fill="white"/>
<path d="M281.104 199.123C280.765 204.419 277.353 268.357 278.738 273.548C278.786 273.695 278.881 273.823 279.011 273.914C279.141 274.005 279.298 274.054 279.46 274.054C279.621 274.054 279.778 274.005 279.908 273.914C280.038 273.823 280.134 273.695 280.181 273.548C281.778 268.622 281.826 205.364 281.742 199.123C281.742 199.043 281.709 198.966 281.649 198.91C281.589 198.853 281.508 198.821 281.423 198.821C281.339 198.821 281.258 198.853 281.198 198.91C281.138 198.966 281.104 199.043 281.104 199.123Z" fill="white"/>
<path d="M429.77 223.296C421.447 220.917 412.481 221.603 404.67 225.216C394.538 229.9 387.925 239.691 383.965 250.089C382.629 247.94 380.559 246.287 378.097 245.402C373.663 243.842 364.803 245.402 364.559 250.983C364.559 251.15 364.612 251.314 364.711 251.453C364.809 251.592 364.949 251.701 365.113 251.764C365.277 251.828 365.457 251.844 365.63 251.811C365.804 251.778 365.963 251.697 366.088 251.578C369.202 249.217 372.578 246.806 376.816 248.298C378.119 248.75 379.272 249.522 380.158 250.533C381.044 251.545 381.63 252.761 381.858 254.056C382.007 255.679 381.627 257.306 380.769 258.717C379.911 260.129 378.617 261.258 377.06 261.952C374.898 262.646 372.553 262.64 370.395 261.934C368.237 261.229 366.389 259.864 365.14 258.055C364.994 257.889 364.634 257.911 364.66 258.168C365.289 264.499 374.682 267.192 380.195 263.726C377.388 279.194 380.901 297.425 395.718 304.563C399.404 306.375 403.439 307.466 407.581 307.769C411.724 308.072 415.888 307.581 419.825 306.327C423.762 305.072 427.392 303.079 430.496 300.467C433.601 297.854 436.117 294.676 437.894 291.123C438.841 289.29 435.966 287.671 434.979 289.51C432.093 295.339 427.021 299.947 420.747 302.437C414.474 304.927 407.446 305.123 401.028 302.986C386.221 298.474 381.602 282.499 382.758 269.256C383.64 260.766 386.147 252.498 390.157 244.858C392.896 238.681 397.467 233.387 403.317 229.616C410.368 225.588 418.781 224.267 426.829 225.921C439.804 228.567 447.412 242.971 446.226 254.519C446.16 255.122 447.084 255.151 447.278 254.649C451.9 242.658 442.122 227.32 429.77 223.296Z" fill="white"/>
<path d="M426.439 282.118C421.936 285.406 417.55 289.115 411.584 289.45C401.047 290.057 390.798 277.998 397.986 259.939C401.529 251.045 409.265 238.676 420.598 238.338C423.013 238.25 425.406 238.798 427.51 239.922C429.615 241.045 431.349 242.699 432.518 244.7C433.984 247.435 433.204 250.323 434.256 253.041C434.554 253.825 435.912 254.234 436.359 253.306C439.211 247.368 434.813 240.052 429.27 237.122C420.926 232.715 411.429 236.276 405.454 242.559C394.511 254.082 384.385 278.768 401.854 289.569C410.577 294.966 421.361 290.181 427.256 283.139C427.709 282.623 427.113 281.625 426.439 282.118Z" fill="white"/>
<path d="M211.027 225.216C215.277 224.71 219.588 224.914 223.763 225.82C243.392 228.11 262.941 232.89 275.52 232.077C275.982 232.046 276.166 231.358 275.633 231.262C266.916 229.689 257.95 229.432 249.188 228.005C240.8 226.643 232.444 225.075 224.01 224.012C219.707 223.078 215.283 222.741 210.878 223.014C210.016 221.859 208.842 220.945 207.479 220.366C206.116 219.787 204.614 219.565 203.13 219.723C193.108 219.782 190.959 230.064 194.726 236.138C195.916 238.058 197.426 239.785 199.196 241.251C199.558 241.544 199.816 241.936 199.936 242.373C200.055 242.809 200.03 243.27 199.863 243.693C198.734 246.555 196.201 252.895 194.13 257.297C194.044 257.479 194.007 257.679 194.022 257.878C194.037 258.077 194.104 258.269 194.217 258.438C194.329 258.607 194.484 258.747 194.668 258.845C194.851 258.944 195.057 258.998 195.268 259.003C201.121 259.152 207.224 259.369 213.062 259.251C213.266 259.246 213.467 259.195 213.646 259.101C213.825 259.007 213.978 258.874 214.091 258.713C214.205 258.552 214.275 258.367 214.297 258.175C214.319 257.982 214.292 257.787 214.218 257.607C212.224 252.737 211.104 248.191 209.063 243.487C208.872 243.058 208.832 242.582 208.95 242.131C209.068 241.679 209.338 241.275 209.718 240.98C210.648 240.215 211.383 239.261 211.869 238.189C212.354 237.117 212.578 235.955 212.522 234.79C217.29 236.51 212.004 243.087 213.819 246.256C214.862 248.087 219.975 248.84 221.903 248.397C225.357 247.602 224.413 239.254 225.536 237.481C226.23 236.372 231.121 237.813 231.296 238.107C231.216 238.997 231.026 239.875 230.73 240.724C230.245 243.262 228.048 247.822 231.416 248.969C232.697 249.165 233.992 249.268 235.29 249.277C236.286 249.571 237.31 249.771 238.347 249.874C241.688 249.632 240.898 244.767 241.446 242.297C242.218 238.769 244.146 239.697 247.174 240.233C256.252 242.15 265.426 243.635 274.661 244.68C275.919 244.779 276.232 242.751 274.959 242.571C267.509 241.505 260.158 240.473 252.8 238.936C249.307 237.854 245.693 237.158 242.03 236.863C239.816 236.953 239.712 238.476 239.348 240.309C239.3 242.405 238.943 244.485 238.288 246.488C237.364 247.793 236.026 247.052 234.539 246.928C230.978 246.626 232.283 244.973 232.363 244.514C232.688 242.667 234.634 237.912 232.849 236.358C230.5 235.371 227.969 234.831 225.399 234.768C224.139 234.948 223.939 235.538 223.575 236.57C223.153 238.106 222.82 239.663 222.577 241.234C222.362 242.193 222.818 246.835 218.867 245.746C216.644 244.917 216.364 244.618 216.101 242.334C215.839 240.05 217.201 237.591 216.915 235.346C216.7 233.626 216.158 233.468 214.334 233.062C212.376 232.625 210.079 232.819 208.44 231.516C205.156 228.911 208.047 225.941 211.027 225.216Z" fill="white"/>
<path d="M356.904 227.599V228.104C356.904 228.149 356.984 228.149 356.984 228.104C356.984 227.938 356.984 227.766 357.008 227.599C357.005 227.546 356.904 227.54 356.904 227.599Z" fill="white"/>
<path d="M124.204 372.956C124.204 372.956 281.727 371.033 283.256 371.349C284.785 371.665 282.88 381.306 278.19 381.278C273.499 381.25 132.781 382.324 130.504 381.473C128.227 380.621 121.776 372.987 124.204 372.956Z" fill="white"/>
<path d="M452.493 239.773C457.818 239.833 495.291 235.794 500.548 236.299C505.933 236.818 574.825 249.987 580.18 249.767C580.585 249.767 580.841 249.158 580.409 248.969C575.427 246.823 507.59 234.305 501.228 233.767C495.738 233.313 461.957 235.763 452.439 239.314C452.382 239.328 452.333 239.362 452.299 239.408C452.266 239.454 452.252 239.51 452.258 239.565C452.265 239.621 452.292 239.672 452.335 239.71C452.378 239.748 452.434 239.771 452.493 239.773Z" fill="white"/>
<path d="M429.157 263.743C469.983 265.489 488.459 246.682 517.246 252.181C518.518 252.421 520.312 252.407 520.583 251.208C520.881 249.934 519.031 249.42 517.684 249.144C506.93 246.558 495.591 247.225 485.258 251.05C467.3 257.713 448.391 261.8 429.157 263.176C429.078 263.176 429.001 263.206 428.945 263.259C428.889 263.313 428.857 263.385 428.857 263.46C428.857 263.535 428.889 263.607 428.945 263.66C429.001 263.713 429.078 263.743 429.157 263.743Z" fill="white"/>
<path d="M432.628 271.49C445.907 285.827 470.808 279.888 487.645 277.099C504.228 274.347 517.626 281.357 533.686 283.303C539.294 283.991 546.413 284.577 551.64 282.113C552.579 281.667 551.989 280.539 551.16 280.441C547.584 280.026 542.119 281.76 530.435 279.473C523.211 278.063 516.473 275.525 509.408 273.715C491.656 269.203 474.244 279.073 456.685 277.702C435.28 276.044 428.566 263.602 428.143 263.602C429.147 266.456 430.664 269.125 432.628 271.49Z" fill="white"/>
<path d="M440.913 299.123C453.25 299.724 465.623 300.293 477.865 301.898C494.919 304.129 511.122 311.5 528.575 310.513C546.029 309.526 562.601 302.826 580.174 302.69C580.375 302.685 580.569 302.619 580.727 302.501C580.885 302.384 580.998 302.221 581.051 302.038C581.104 301.855 581.093 301.66 581.02 301.483C580.947 301.306 580.815 301.156 580.645 301.055C571.356 296.478 563.462 301.106 550.812 303.497C540.004 305.53 529.505 308.35 518.515 306.957C504.956 305.237 492.139 300.271 478.52 298.649C466.012 296.97 453.324 296.869 440.788 298.348C440.323 298.424 440.466 299.103 440.913 299.123Z" fill="white"/>
<path d="M69.8409 433.673C69.8479 433.671 69.8539 433.667 69.8583 433.662C69.8626 433.656 69.8649 433.649 69.8649 433.642C69.8649 433.636 69.8626 433.629 69.8583 433.623C69.8539 433.618 69.8479 433.614 69.8409 433.612C69.8339 433.614 69.8279 433.618 69.8235 433.623C69.8192 433.629 69.8169 433.636 69.8169 433.642C69.8169 433.649 69.8192 433.656 69.8235 433.662C69.8279 433.667 69.8339 433.671 69.8409 433.673Z" fill="white"/>
<path d="M279.679 423.059C276.997 423.02 272.486 422.989 266.523 422.966C265.086 419.568 267.149 424.621 261.338 410.758C266.559 410.758 270.561 410.758 273.01 410.787C273.255 410.787 273.49 410.694 273.663 410.53C273.837 410.366 273.934 410.144 273.934 409.912C273.934 409.68 273.837 409.458 273.663 409.294C273.49 409.13 273.255 409.038 273.01 409.038C270.504 409.004 266.216 408.973 260.569 408.951C259.21 405.849 258.763 405.372 257.678 404.825C257.592 404.779 257.496 404.752 257.398 404.746C257.299 404.74 257.2 404.754 257.109 404.789C257.017 404.824 256.935 404.877 256.868 404.946C256.801 405.015 256.751 405.097 256.722 405.186C256.373 406.131 256.328 406.706 257.148 408.939C246.7 408.906 232.563 408.886 216.769 408.883C216.149 407.126 215.337 405.435 214.346 403.838C214.276 403.733 214.173 403.652 214.051 403.606C213.929 403.56 213.794 403.553 213.667 403.584C213.541 403.615 213.428 403.684 213.345 403.781C213.262 403.877 213.214 403.996 213.208 404.12C213.247 405.718 213.447 407.309 213.804 408.872C200.361 408.872 185.836 408.872 171.437 408.903C171.365 407.705 171.291 406.506 171.213 405.304C171.202 405.137 171.124 404.98 170.994 404.866C170.865 404.751 170.695 404.688 170.518 404.688C170.341 404.688 170.17 404.751 170.041 404.866C169.912 404.98 169.833 405.137 169.822 405.304C169.694 406.506 169.565 407.707 169.446 408.906C154.442 408.925 139.646 408.956 126.4 408.996C126.508 407.905 126.354 406.804 125.947 405.778C125.819 405.476 125.399 405.276 125.137 405.567C124.295 406.559 123.747 407.745 123.551 409.004C108.478 409.052 95.6436 409.111 87.1804 409.179C88.0506 407.903 88.7739 406.543 89.3379 405.121C89.7849 403.917 87.8747 402.817 86.9956 403.841C85.5258 405.582 84.1281 407.377 82.8057 409.221C80.7799 409.233 78.7544 409.269 76.7295 409.329C76.5691 409.329 76.4152 409.389 76.3018 409.496C76.1883 409.604 76.1246 409.749 76.1246 409.901C76.1246 410.053 76.1883 410.198 76.3018 410.306C76.4152 410.413 76.5691 410.473 76.7295 410.473C78.1152 410.572 79.787 410.66 81.7151 410.741C74.6376 420.693 75.2187 419.624 72.6916 423.231C69.9616 423.241 67.2317 423.281 64.5026 423.35C64.3421 423.35 64.1883 423.41 64.0748 423.517C63.9614 423.625 63.8976 423.77 63.8976 423.922C63.8976 424.074 63.9614 424.219 64.0748 424.327C64.1883 424.434 64.3421 424.495 64.5026 424.495C66.1684 424.607 68.5792 424.703 71.6248 424.777C70.1156 426.988 68.7761 429.298 67.6167 431.691C67.5826 431.747 67.5605 431.808 67.5515 431.872C67.5425 431.935 67.5468 432 67.5643 432.062C67.5995 432.187 67.6859 432.294 67.8044 432.359C67.923 432.425 68.064 432.442 68.1964 432.409C68.3289 432.376 68.4419 432.294 68.5107 432.182C70.2987 429.723 72.2863 427.261 74.3366 424.85C84.4686 425.067 100.015 425.154 118.166 425.168C117.34 427.322 116.818 429.569 116.614 431.852C116.557 432.673 117.681 432.785 118.104 432.235C119.661 430.071 120.859 427.693 121.656 425.185C136.142 425.185 152.112 425.152 168.219 425.095C167.923 427.484 168.21 429.905 169.056 432.173C169.147 432.321 169.277 432.444 169.434 432.53C169.591 432.615 169.769 432.66 169.95 432.66C170.131 432.66 170.309 432.615 170.466 432.53C170.623 432.444 170.753 432.321 170.844 432.173C171.797 429.924 172.187 427.497 171.985 425.081C187.845 425.022 203.728 424.949 218.345 424.887C218.991 427.088 219.909 429.211 221.081 431.209C221.187 431.37 221.346 431.494 221.533 431.564C221.72 431.633 221.926 431.643 222.12 431.593C222.314 431.543 222.485 431.436 222.609 431.286C222.734 431.137 222.804 430.953 222.809 430.763C222.708 428.772 222.38 426.797 221.832 424.872C238.12 424.802 252.651 424.745 263.552 424.743C264.543 427.346 265.899 429.812 267.584 432.075C268.007 432.608 269.217 432.54 269.121 431.683C268.802 429.305 268.176 426.974 267.259 424.74C272.581 424.74 276.819 424.765 279.691 424.808C279.813 424.807 279.933 424.783 280.044 424.739C280.156 424.694 280.258 424.629 280.343 424.547C280.428 424.466 280.495 424.369 280.541 424.263C280.587 424.156 280.61 424.042 280.609 423.928C280.608 423.813 280.584 423.699 280.537 423.594C280.489 423.488 280.421 423.392 280.334 423.311C280.248 423.231 280.146 423.167 280.033 423.124C279.921 423.08 279.801 423.058 279.679 423.059ZM75.7312 423.217C79.4979 418.838 83.2885 414.636 85.9973 410.902C95.0863 411.184 108.011 411.308 122.893 411.356C121.812 415.313 120.5 419.209 118.962 423.028C100.948 423.079 85.5831 423.144 75.7312 423.217ZM122.362 423.02C125.169 414.075 125.461 413.996 126.046 411.365C139.435 411.396 154.254 411.365 169.208 411.3C168.534 418.386 168.752 418.708 168.379 422.927C153.04 422.947 137.701 422.979 122.362 423.02ZM171.884 422.921C171.711 419.156 171.92 418.127 171.568 411.288C186.17 411.224 200.814 411.128 214.334 411.037C215.079 413.787 214.206 410.313 217.737 422.881C203.278 422.893 187.562 422.901 171.884 422.921ZM221.239 422.896L217.496 411.015C233.364 410.908 247.492 410.809 257.863 410.77C260.19 416.542 259.451 414.331 262.822 422.952C252.028 422.915 237.524 422.898 221.239 422.896Z" fill="white"/>
<path d="M352.061 425.256C350.455 424.712 349.027 424.495 342.078 424.585C339.359 419.564 336.36 414.682 333.096 409.96C336.068 410.114 339.047 409.863 341.944 409.216C342.135 409.16 342.302 409.048 342.421 408.896C342.539 408.743 342.603 408.559 342.603 408.37C342.603 408.181 342.539 407.996 342.421 407.844C342.302 407.692 342.135 407.58 341.944 407.524C338.371 406.775 334.689 406.602 331.055 407.011C330.077 405.626 329.084 404.252 328.075 402.888C327.964 402.719 327.788 402.597 327.584 402.549C327.379 402.501 327.163 402.53 326.982 402.63C326.8 402.731 326.667 402.894 326.61 403.086C326.554 403.278 326.579 403.483 326.68 403.658L328.713 407.087C323.745 407.259 315.705 407.583 310.436 407.809C309.191 405.917 307.711 404.174 306.026 402.617C305.943 402.544 305.837 402.499 305.724 402.487C305.612 402.476 305.498 402.499 305.4 402.552C305.302 402.606 305.225 402.689 305.18 402.787C305.135 402.885 305.124 402.995 305.15 403.099C305.638 404.77 306.285 406.395 307.084 407.955C303.532 407.915 299.985 408.205 296.493 408.821C296.367 408.857 296.256 408.93 296.177 409.03C296.099 409.129 296.056 409.251 296.056 409.375C296.056 409.5 296.099 409.621 296.177 409.721C296.256 409.821 296.367 409.894 296.493 409.929C300.434 410.698 304.473 410.905 308.478 410.544C310.07 413.316 311.876 416.018 313.369 418.629C314.576 420.733 315.711 422.989 316.924 425.208C313.096 425.055 309.262 425.328 305.501 426.02C305.365 426.045 305.242 426.113 305.153 426.215C305.065 426.316 305.016 426.443 305.016 426.574C305.016 426.706 305.065 426.833 305.153 426.934C305.242 427.035 305.365 427.104 305.501 427.129C309.756 427.883 314.096 428.113 318.414 427.814C319.605 429.874 321.029 431.806 322.66 433.575C323.104 434.043 323.814 433.536 323.7 433.011C323.31 431.226 322.727 429.483 321.96 427.811C328.295 427.786 336.678 427.715 340.734 427.659C341.67 429.253 342.737 430.775 343.926 432.21C344.379 432.774 345.463 432.492 345.216 431.7C344.773 430.313 344.238 428.953 343.613 427.63C346.459 427.82 349.319 427.591 352.091 426.951C352.282 426.893 352.448 426.778 352.565 426.624C352.682 426.469 352.744 426.283 352.741 426.093C352.737 425.903 352.669 425.719 352.547 425.568C352.425 425.417 352.254 425.308 352.061 425.256ZM320.619 425.112C319.165 422.374 317.466 419.723 315.985 417.182C314.751 415.073 313.506 412.747 312.135 410.476C316.605 410.383 322.514 410.228 330.435 410.022C334.75 417.354 337.265 421.751 338.937 424.638C334.992 424.692 331.132 424.816 320.619 425.101V425.112Z" fill="white"/>
</svg>
