<svg width="615" height="677" viewBox="0 0 615 677" fill="none" xmlns="http://www.w3.org/2000/svg">
<path d="M325.819 422.722C376.112 419.913 422.187 418.64 429.616 423.226C433.443 425.596 439.396 456.738 442.132 477.566C457.579 475.535 476.992 473.666 496.386 472.211C493.506 456.186 491.729 446.146 485.195 430.663C484.205 428.317 486.916 427.37 488.02 429.512C494.567 442.713 498.964 457.075 501.012 471.947C527.269 470.048 553.176 468.9 569.413 468.9C567.569 451.4 557.356 411.071 539.047 390.392C524.933 374.452 497.554 360.265 473.322 356.908C472.944 360.606 471.649 364.119 469.578 367.06C467.507 370 464.74 372.256 461.581 373.579C448.635 379.181 425.006 380.653 403.927 367.902C381.69 374.889 340.938 401.542 325.819 422.722Z" fill="white"/>
<path d="M596.901 547.283C464.298 550.029 332.296 549.487 199.764 549.653C197.084 549.653 196.478 554.267 199.251 554.321C331.484 557.012 465.294 553.843 597.506 552.06C600.331 552.032 599.71 547.226 596.901 547.283Z" fill="white"/>
<path d="M270.407 258.736C284.019 259.017 350.362 257.656 357.416 257.321C359.543 257.219 359.487 253.178 357.416 253.178C347.946 253.178 285.645 254.501 270.407 255.381C270.038 255.436 269.7 255.636 269.455 255.945C269.21 256.253 269.076 256.649 269.076 257.059C269.076 257.468 269.21 257.864 269.455 258.172C269.7 258.481 270.038 258.681 270.407 258.736Z" fill="white"/>
<path d="M216.069 240.02C215.079 240.589 197.963 263.248 205.85 260.554C206.968 260.171 218.144 244.576 218.694 241.78C218.76 241.418 218.723 241.042 218.588 240.703C218.454 240.365 218.228 240.08 217.941 239.888C217.655 239.696 217.321 239.605 216.986 239.629C216.651 239.653 216.331 239.789 216.069 240.02Z" fill="white"/>
<path d="M178.773 188.544C184.277 188.829 296.367 188.521 303.048 187.796C303.997 187.658 304.866 187.136 305.485 186.333C306.105 185.529 306.432 184.501 306.402 183.447C306.373 182.394 305.989 181.389 305.326 180.63C304.663 179.87 303.767 179.408 302.812 179.334C271.618 179.76 206.773 179.936 178.948 180.607C174.774 180.712 174.423 188.328 178.773 188.544Z" fill="white"/>
<path d="M335.674 318.813C328.46 318.813 273.612 318.136 269.727 319.358C268.406 319.778 267.883 322.133 269.469 322.631C273.612 323.941 328.174 323.278 335.707 323.278C343.241 323.278 350.553 323.575 357.929 323.278C360.185 323.186 360.019 319.023 357.782 318.914C350.442 318.556 343.029 318.813 335.674 318.813Z" fill="white"/>
<path d="M268.864 350.439C268.398 350.591 268.006 350.94 267.772 351.409C267.539 351.878 267.482 352.429 267.616 352.944C268.249 355.313 265.406 354.501 358.882 356.217C359.398 356.159 359.875 355.893 360.223 355.469C360.571 355.045 360.763 354.495 360.763 353.924C360.763 353.353 360.571 352.802 360.223 352.378C359.875 351.955 359.398 351.688 358.882 351.63C269.208 350.036 274.774 349.935 268.864 350.439Z" fill="white"/>
<path d="M356.884 291.753C357.384 291.716 357.854 291.476 358.202 291.078C358.55 290.681 358.751 290.156 358.767 289.604C358.783 289.052 358.612 288.514 358.287 288.093C357.962 287.673 357.507 287.4 357.01 287.329C343.671 286.923 281.597 286.354 270.336 288.825C268.492 289.228 268.904 292.186 270.665 292.359C280.19 293.303 294.752 289.78 356.884 291.753Z" fill="white"/>
<path d="M438.866 231.615C439.032 202.457 440.261 166.082 438.039 137.79C437.978 137.365 437.776 136.98 437.473 136.709C437.169 136.439 436.785 136.302 436.395 136.324C436.005 136.347 435.637 136.528 435.361 136.832C435.085 137.137 434.921 137.543 434.901 137.973C434.179 151.546 434.858 214.616 434.901 231.94C434.907 234.787 438.85 234.465 438.866 231.615Z" fill="white"/>
<path d="M206.919 366.704C210.728 371.299 214.777 375.645 219.047 379.719C220.891 381.632 223.731 378.582 221.875 376.673C217.895 372.263 213.711 368.083 209.341 364.148C208.01 363.21 205.892 365.13 206.919 366.704Z" fill="white"/>
<path d="M36.5738 137.79C36.5738 135.244 32.9348 134.781 32.904 137.387C31.6931 245.22 33.3097 370.644 37.9877 477.918C38.1168 480.89 42.2907 480.162 42.1523 477.21C37.2101 363.735 36.4325 251.36 36.5738 137.79Z" fill="white"/>
<path d="M82.8092 378.406C81.7765 380.098 84.1708 382.251 85.3787 380.67C86.937 378.639 95.9732 367.107 95.5214 364.625C94.2767 358.052 84.5735 375.532 82.8092 378.406Z" fill="white"/>
<path d="M203.379 475.254C186.865 474.238 52.3877 475.034 47.1411 475.931C46.7531 476.069 46.4176 476.345 46.1869 476.715C45.9563 477.085 45.8436 477.529 45.8664 477.977C45.8892 478.426 46.0463 478.853 46.3131 479.193C46.5799 479.532 46.9413 479.765 47.3409 479.854C98.1866 480.013 152.149 479.57 203.084 479.631C205.561 479.631 205.985 475.423 203.379 475.254Z" fill="white"/>
<path d="M89.2891 265.665C91.1087 267.902 93.8995 265.1 92.3873 263.201C88.7174 258.614 80.8553 248.198 77.2316 244.691C75.7962 243.3 73.8507 245.477 74.865 247.135C77.4713 251.417 85.6961 261.251 89.2891 265.665Z" fill="white"/>
<path d="M148.452 245.751C148.682 236.965 148.21 228.174 147.041 219.48C146.879 219.167 146.638 218.913 146.348 218.748C146.057 218.583 145.73 218.514 145.404 218.55C145.079 218.586 144.77 218.725 144.515 218.95C144.26 219.175 144.07 219.477 143.968 219.818C143.719 228.594 144.105 237.378 145.123 246.086C145.216 246.523 145.449 246.908 145.779 247.17C146.109 247.433 146.514 247.555 146.92 247.514C147.325 247.473 147.704 247.272 147.985 246.948C148.267 246.624 148.433 246.199 148.452 245.751Z" fill="white"/>
<path d="M151.141 376.808C151.141 379.618 150.462 398.269 151.377 400.716C151.539 401.025 151.772 401.281 152.052 401.459C152.333 401.637 152.651 401.731 152.974 401.731C153.298 401.731 153.616 401.637 153.896 401.459C154.176 401.281 154.409 401.025 154.571 400.716C155.527 398.029 154.442 380.508 154.316 376.808C154.15 374.828 151.141 374.787 151.141 376.808Z" fill="white"/>
<path d="M74.2405 315.621C111.569 238.304 196.657 246.428 227.949 309.355C190.98 371.494 118.555 380.9 74.0714 321.155C72.6822 319.293 70.9641 321.673 72.2273 323.623C111.335 383.537 194.896 375.718 229.399 315.16C230.524 313.621 231.18 311.732 231.275 309.759C231.371 307.787 230.9 305.831 229.931 304.169C191.988 232.604 96.9602 245.477 71.671 313.789C70.918 315.82 73.3399 317.489 74.2405 315.621Z" fill="white"/>
<path d="M414.479 237.092C404.865 239.123 396.385 262.253 406.992 273.081C413.486 279.713 443.395 279.994 461.526 279.144C461.656 281.588 462.132 283.994 462.937 286.276C463.659 288.307 465.823 288.95 465.285 285.288C464.991 283.202 464.856 281.092 464.882 278.981C467.701 278.847 470.516 278.621 473.322 278.304C472.834 282.815 472.13 287.294 471.214 291.723C470.707 294.15 473.181 294.603 474.02 292.288C476.593 284.965 477.634 277.097 477.066 269.27C475.972 252.017 432.041 233.375 414.479 237.092ZM417.507 246.205C413.084 247.318 412.039 254.718 411.636 258.675C410.945 265.445 407.026 260.706 407.966 254.752C408.686 250.263 412.168 242.952 417.248 243.679C417.543 243.662 417.832 243.769 418.057 243.979C418.282 244.189 418.426 244.485 418.459 244.808C418.492 245.13 418.412 245.455 418.235 245.714C418.058 245.974 417.797 246.149 417.507 246.205Z" fill="white"/>
<path d="M450.425 306.749C452.875 302.179 454.559 297.162 455.398 291.936C459.527 292.759 463.463 294.486 466.976 297.013C469.066 298.005 469.859 294.982 468.82 294.045C465.048 290.659 460.437 288.603 455.588 288.145C453.351 283.477 436.342 282.39 433.717 287.315C433.075 286.918 432.363 286.675 431.63 286.602C430.896 286.53 430.157 286.628 429.46 286.892C428.123 282.85 413.038 281.838 409.279 286.506C404.949 285.982 403.151 290.386 408.874 290.345C409.085 294.72 409.82 299.045 411.059 303.208C412.54 306.545 423.193 306.495 425.314 304.806C427.837 302.798 428.984 294.035 429.7 290.66C430.739 290.3 431.862 290.372 432.856 290.863C432.834 295.387 433.301 299.899 434.249 304.301C435.878 307.869 448.061 309.822 450.425 306.749ZM424.149 300.926C423.648 302.257 423.196 302.575 419.158 302.399C412.334 302.104 413.764 303.733 411.674 288.598C416.48 286.801 421.691 286.801 426.497 288.598C426.431 292.834 425.634 297.018 424.149 300.926ZM436.993 302.46C436.232 298.299 435.96 294.047 436.185 289.81C441.456 287.738 447.243 287.932 452.389 290.355C452.101 293.684 451.325 296.939 450.093 299.996C448.347 304.203 448.058 304.755 442.554 304.261C439.91 304.024 437.365 303.377 436.993 302.463V302.46Z" fill="white"/>
<path d="M439.6 299.755C440.175 302.037 444.21 302.304 443.27 295.714C442.732 291.963 437.931 293.141 439.6 299.755Z" fill="white"/>
<path d="M474.46 297.027C463.93 297.998 458.732 319.243 453.138 321.277C449.229 322.702 440.46 316.508 431.599 315.841C422.738 315.174 417.691 319.297 416.038 318.427C414.384 317.557 415.524 309.941 415.524 308.164C415.524 306.386 414.645 305.415 413.084 309.335C411.523 313.255 396.296 350.882 402.92 361.007C412.386 375.474 451.018 378.538 463.011 368.586C478.046 356.109 465.251 316.037 468.955 305.598C469.651 304.105 470.762 302.897 472.125 302.148C473.488 301.399 475.033 301.149 476.534 301.434C481.6 303.851 480.207 320.39 472.111 317.801C470.077 317.154 469.616 319.97 471.497 321.057C476.995 324.242 482.392 319.276 483.112 310.953C483.65 304.65 481.707 296.36 474.46 297.027ZM432.533 334.6C424.902 334.6 423.359 331.266 422.716 325.799C429.322 327.363 436.166 327.232 442.719 325.417C442.021 330.413 441.053 334.614 432.533 334.614V334.6Z" fill="white"/>
<path d="M428.882 299.088C427.469 302.676 426.411 306.421 425.725 310.259C424.966 314.812 430.465 314.825 433.563 314.301C435.407 313.989 435.745 311.674 433.726 311.511C432.241 311.389 429.324 311.308 429.048 310.743C429.302 306.966 429.961 303.236 431.012 299.63C431.439 298.141 429.466 297.558 428.882 299.088Z" fill="white"/>
<path d="M420.153 299.911C421.862 299.193 421.997 294.126 420.537 293.182C416.852 290.771 416.339 301.495 420.153 299.911Z" fill="white"/>
<path d="M450.222 121.623C308.076 121.745 157.177 121.383 17.1955 122.696C14.8104 122.716 14.7551 129.466 17.0479 129.483C158.754 130.461 308.002 129.243 450.074 129.121C452.625 129.117 452.681 121.623 450.222 121.623Z" fill="white"/>
<path d="M288.277 481.97C263.996 480.379 226.384 475.146 203.726 464.432C200.813 463.051 186.419 465.641 170.077 457.324C168.368 456.457 167.689 459.108 169.287 460.194C177.638 465.861 188.186 467.37 197.819 467.712C200.408 467.639 202.973 468.27 205.288 469.55C231.985 480.095 260.1 485.628 288.461 485.917C290.791 485.954 290.717 482.132 288.277 481.97Z" fill="white"/>
<path d="M564.334 474.293C563.861 471.442 560.372 472.448 560.809 475.281C562.31 485.451 561.715 495.864 559.066 505.746C552.793 529.824 534.333 525.961 515.855 525.024C496.461 524.042 469.752 521.994 452.995 521.144C452.625 521.09 452.25 521.198 451.951 521.443C451.651 521.689 451.451 522.053 451.392 522.459C451.333 522.865 451.42 523.28 451.635 523.617C451.85 523.953 452.176 524.183 452.543 524.259C468.664 527.078 503.1 528.747 516.516 529.448C534.865 530.409 555.335 533.104 562.167 509.707C565.529 498.279 566.273 486.114 564.334 474.293Z" fill="white"/>
<path d="M444.056 486.357C467.802 482.198 491.723 479.359 515.728 477.85C516.116 477.812 516.475 477.609 516.731 477.286C516.987 476.962 517.119 476.542 517.1 476.114C517.081 475.685 516.912 475.281 516.629 474.987C516.345 474.692 515.97 474.53 515.58 474.533C491.411 475.625 467.324 478.325 443.45 482.616C443 482.706 442.6 482.989 442.339 483.403C442.079 483.818 441.978 484.329 442.059 484.825C442.141 485.321 442.398 485.761 442.774 486.048C443.15 486.336 443.615 486.446 444.065 486.357H444.056Z" fill="white"/>
<path d="M191.25 457.077C191.506 457.074 191.758 457.016 191.993 456.904C192.228 456.792 192.439 456.629 192.615 456.425C192.792 456.221 192.929 455.979 193.018 455.716C193.108 455.452 193.148 455.171 193.137 454.89C193.126 454.608 193.063 454.333 192.953 454.078C192.843 453.824 192.688 453.597 192.496 453.411C192.304 453.224 192.081 453.082 191.838 452.993C191.595 452.904 191.339 452.87 191.084 452.893C179.675 453.295 173.918 449.728 166.388 443.838C165.196 442.907 163.929 444.549 164.851 445.869C170.212 453.671 182.718 457.442 191.25 457.077Z" fill="white"/>
<path d="M210.23 435.649C211.619 438.303 214.533 438.662 217.127 439.309C232.449 443.144 267.509 441.864 283.771 441.654C286.082 441.624 285.615 438.334 283.239 438.357C271.366 438.489 235.531 438.862 217.751 435.247C214.468 434.57 214.637 435.104 212.962 432.2C209.797 426.696 205.076 419.963 199.35 419.852C197.641 419.818 197.505 421.632 198.962 422.438C204.021 425.232 208.014 429.914 210.23 435.649Z" fill="white"/>
<path d="M200.087 436.401C192.151 433.835 180.936 429.719 174.767 420.942C172.923 418.308 171.356 420.356 172.271 422.478C176.113 431.388 190.178 439.403 198.252 439.742C202.718 439.948 201.476 436.848 200.087 436.401Z" fill="white"/>
<path d="M167.947 429.492C167.694 429.152 167.332 428.933 166.936 428.878C166.54 428.823 166.139 428.937 165.818 429.197C165.496 429.457 165.276 429.843 165.205 430.276C165.133 430.709 165.215 431.155 165.433 431.523C168.363 436.152 172.167 440.028 176.586 442.885C181.004 445.741 185.932 447.511 191.03 448.072C191.431 448.088 191.826 447.958 192.155 447.704C192.484 447.449 192.728 447.083 192.85 446.662C192.973 446.24 192.967 445.786 192.833 445.369C192.7 444.951 192.447 444.593 192.112 444.349C189.416 443.069 177.958 442.247 167.947 429.492Z" fill="white"/>
<path d="M521.784 533.056C516.279 532.268 452.426 533.825 449.469 532.491C446.512 531.157 431.218 435.23 427.223 428.927C423.227 422.624 297.368 426.622 291.645 430.261C285.922 433.899 304.822 543.472 309.718 545.689C314.085 547.662 515.222 544.921 521.793 544.538C528.364 544.156 527.288 533.845 521.784 533.056ZM363.213 501.532C346.041 503.106 340.659 472.082 357.819 468.998C365.964 467.533 373.141 475.488 374.662 485.284C374.978 487.193 374.926 489.154 374.507 491.039C374.089 492.925 373.314 494.692 372.234 496.225C371.153 497.758 369.792 499.023 368.237 499.938C366.683 500.852 364.971 501.395 363.213 501.532Z" fill="white"/>
</svg>
