<svg width="26" height="26" viewBox="0 0 26 26" fill="none" xmlns="http://www.w3.org/2000/svg">
<path fill-rule="evenodd" clip-rule="evenodd" d="M2.62631 6.39202L2.75987 6.24176C3.24938 5.72988 3.97863 5.47378 4.94695 5.47378H21.5421C22.4546 5.47378 23.1558 5.69649 23.6457 6.14159L23.6624 6.15829C23.7625 6.24744 23.863 6.35295 23.9629 6.4755C23.9629 6.48685 23.9686 6.49787 23.9796 6.50889L23.9963 6.52558C24.3639 6.98203 24.5472 7.62747 24.5472 8.46224V17.9118C24.5362 19.9152 23.5345 20.9169 21.5421 20.9169H4.94695C2.95454 20.9059 1.9585 19.9042 1.9585 17.9118V8.46224C1.9585 7.56069 2.18121 6.87051 2.62631 6.39202ZM22.093 7.10992C21.9261 7.06551 21.7424 7.04848 21.5424 7.05983H4.94695C4.82441 7.04881 4.70754 7.05415 4.59635 7.07653L13.1944 15.7915L22.093 7.10992ZM3.54455 8.27859C3.53353 8.33435 3.53353 8.39545 3.54455 8.46224V17.9118C3.54455 18.8581 4.01202 19.3309 4.94695 19.3309H21.5421C22.488 19.3309 22.9612 18.8581 22.9612 17.9118V8.47893L13.7454 17.4777C13.5784 17.6336 13.3894 17.7114 13.1781 17.7114C12.9554 17.7004 12.766 17.6223 12.6104 17.4777L3.54455 8.27859Z" fill="url(#paint0_linear_53_99)"/>
<path fill-rule="evenodd" clip-rule="evenodd" d="M2.62646 6.39174C2.64884 6.35835 2.67655 6.32496 2.70994 6.29157C2.72129 6.2692 2.73765 6.2525 2.76003 6.24148L2.62646 6.39174Z" fill="url(#paint1_linear_53_99)"/>
<defs>
<linearGradient id="paint0_linear_53_99" x1="13.2529" y1="5.47378" x2="13.2529" y2="20.9169" gradientUnits="userSpaceOnUse">
<stop/>
<stop offset="1"/>
</linearGradient>
<linearGradient id="paint1_linear_53_99" x1="2.69325" y1="6.24148" x2="2.69325" y2="6.39174" gradientUnits="userSpaceOnUse">
<stop stop-color="#B356C1"/>
<stop offset="1" stop-color="#9734A6"/>
</linearGradient>
</defs>
</svg>
