<svg xmlns="http://www.w3.org/2000/svg" xmlns:xlink="http://www.w3.org/1999/xlink" width="473" zoomAndPan="magnify" viewBox="0 0 354.75 103.5" height="138" preserveAspectRatio="xMidYMid meet" version="1.0"><defs><g/><clipPath id="ef7c759d15"><path d="M 0.726562 0 L 120 0 L 120 102.257812 L 0.726562 102.257812 Z M 0.726562 0 " clip-rule="nonzero"/></clipPath></defs><g clip-path="url(#ef7c759d15)"><path fill="#000000" d="M 111.453125 18.519531 L 111.453125 8.894531 C 111.453125 8.753906 111.398438 8.644531 111.316406 8.5625 C 111.234375 8.480469 111.121094 8.425781 110.984375 8.425781 L 28.339844 8.425781 C 28.203125 8.425781 28.09375 8.480469 28.011719 8.5625 C 27.929688 8.644531 27.875 8.753906 27.875 8.894531 L 27.875 14.859375 L 19.511719 14.859375 L 19.511719 8.894531 C 19.511719 6.472656 20.503906 4.246094 22.097656 2.648438 C 23.691406 1.054688 25.894531 0.0664062 28.339844 0.0664062 L 110.984375 0.0664062 C 113.40625 0.0664062 115.632812 1.054688 117.226562 2.648438 C 118.824219 4.246094 119.8125 6.445312 119.8125 8.894531 L 119.8125 18.519531 C 119.8125 20.9375 118.824219 23.167969 117.226562 24.761719 L 117.199219 24.761719 C 115.605469 26.355469 113.40625 27.347656 110.984375 27.347656 L 27.875 27.347656 L 27.875 34.46875 C 27.875 34.554688 27.875 34.609375 27.902344 34.636719 L 27.902344 34.664062 C 27.902344 34.691406 27.957031 34.746094 28.011719 34.800781 C 34.253906 41.261719 40.496094 47.726562 46.710938 54.191406 L 48.308594 55.839844 L 48.828125 56.390625 C 48.886719 56.445312 48.941406 56.5 48.96875 56.5 C 48.996094 56.5 49.050781 56.5 49.160156 56.5 L 94.675781 56.5 C 94.8125 56.5 94.921875 56.445312 95.007812 56.363281 C 95.089844 56.28125 95.144531 56.167969 95.144531 56.03125 L 95.144531 46.40625 C 95.144531 46.269531 95.089844 46.160156 95.007812 46.078125 C 94.921875 45.992188 94.8125 45.9375 94.675781 45.9375 L 49.105469 45.9375 C 48.996094 45.9375 48.941406 45.9375 48.914062 45.9375 C 48.886719 45.9375 48.828125 45.992188 48.773438 46.046875 L 46.65625 48.167969 L 40.882812 42.171875 L 42.917969 40.164062 C 43.742188 39.339844 44.703125 38.679688 45.777344 38.265625 C 46.851562 37.824219 47.976562 37.605469 49.132812 37.605469 L 94.703125 37.605469 C 97.125 37.605469 99.351562 38.59375 100.945312 40.191406 C 102.542969 41.785156 103.53125 43.984375 103.53125 46.433594 L 103.53125 56.058594 C 103.53125 58.480469 102.542969 60.707031 100.945312 62.300781 L 100.917969 62.300781 C 99.324219 63.898438 97.125 64.886719 94.703125 64.886719 L 49.1875 64.886719 C 47.976562 64.886719 46.820312 64.640625 45.75 64.199219 C 44.675781 63.734375 43.714844 63.074219 42.863281 62.191406 L 37.855469 57.023438 L 28.039062 66.757812 C 27.984375 66.8125 27.957031 66.867188 27.929688 66.894531 C 27.929688 66.921875 27.902344 66.976562 27.902344 67.089844 L 27.902344 71.046875 L 19.539062 71.046875 L 19.539062 67.089844 C 19.539062 65.90625 19.761719 64.777344 20.199219 63.707031 C 20.640625 62.660156 21.300781 61.699219 22.152344 60.84375 L 32.054688 51 L 22.015625 40.601562 C 21.21875 39.777344 20.585938 38.84375 20.171875 37.796875 C 19.761719 36.753906 19.539062 35.652344 19.539062 34.496094 L 19.539062 27.375 L 9.554688 27.375 C 9.417969 27.375 9.308594 27.429688 9.226562 27.511719 C 9.144531 27.59375 9.089844 27.703125 9.089844 27.84375 L 9.089844 74.679688 C 9.089844 74.816406 9.144531 74.925781 9.226562 75.007812 C 9.308594 75.089844 9.417969 75.144531 9.554688 75.144531 L 111.011719 75.144531 C 113.433594 75.144531 115.660156 76.136719 117.253906 77.730469 C 118.851562 79.328125 119.839844 81.527344 119.839844 83.972656 L 119.839844 93.601562 C 119.839844 96.019531 118.851562 98.25 117.253906 99.84375 C 115.660156 101.4375 113.460938 102.429688 111.011719 102.429688 L 28.367188 102.429688 C 25.949219 102.429688 23.71875 101.4375 22.125 99.84375 C 20.53125 98.25 19.539062 96.046875 19.539062 93.601562 L 19.539062 83.507812 L 9.554688 83.507812 C 7.136719 83.507812 4.9375 82.515625 3.339844 80.921875 L 3.3125 80.921875 C 1.71875 79.328125 0.726562 77.125 0.726562 74.679688 L 0.726562 27.84375 C 0.726562 25.421875 1.71875 23.195312 3.3125 21.597656 C 4.910156 20.003906 7.109375 19.015625 9.554688 19.015625 L 111.011719 19.015625 C 111.148438 19.015625 111.261719 18.960938 111.34375 18.875 C 111.425781 18.792969 111.480469 18.683594 111.480469 18.546875 Z M 27.875 83.480469 L 27.875 93.574219 C 27.875 93.710938 27.929688 93.820312 28.011719 93.902344 C 28.09375 93.984375 28.203125 94.039062 28.339844 94.039062 L 110.984375 94.039062 C 111.121094 94.039062 111.234375 93.984375 111.316406 93.902344 C 111.398438 93.820312 111.453125 93.710938 111.453125 93.574219 L 111.453125 83.945312 C 111.453125 83.808594 111.398438 83.699219 111.316406 83.617188 C 111.234375 83.535156 111.121094 83.480469 110.984375 83.480469 Z M 27.875 83.480469 " fill-opacity="1" fill-rule="evenodd"/></g><g fill="#000000" fill-opacity="1"><g transform="translate(128.031698, 72.880491)"><g><path d="M 10.554688 -43.53125 C 5.496094 -43.53125 2.71875 -40.808594 2.71875 -35.695312 L 2.71875 -22.851562 C 2.71875 -21.820312 3.210938 -21.167969 4.191406 -20.839844 L 17.085938 -16.597656 L 17.085938 -9.359375 C 17.085938 -7.890625 16.324219 -7.183594 14.910156 -7.183594 L 12.296875 -7.183594 C 10.9375 -7.183594 10.121094 -7.890625 10.121094 -9.359375 L 10.121094 -13.546875 C 10.121094 -14.148438 9.847656 -14.417969 9.25 -14.417969 L 3.589844 -14.417969 C 3.046875 -14.417969 2.71875 -14.148438 2.71875 -13.546875 L 2.71875 -7.835938 C 2.71875 -2.71875 5.496094 0 10.554688 0 L 16.648438 0 C 21.765625 0 24.484375 -2.71875 24.484375 -7.835938 L 24.484375 -20.40625 C 24.484375 -21.4375 23.996094 -22.035156 23.070312 -22.417969 L 10.121094 -26.660156 L 10.121094 -34.171875 C 10.121094 -35.585938 10.9375 -36.347656 12.296875 -36.347656 L 14.910156 -36.347656 C 16.378906 -36.347656 17.085938 -35.585938 17.085938 -34.171875 L 17.085938 -29.925781 C 17.085938 -29.382812 17.410156 -29.054688 17.957031 -29.054688 L 23.613281 -29.054688 C 24.214844 -29.054688 24.484375 -29.382812 24.484375 -29.925781 L 24.484375 -35.695312 C 24.484375 -40.808594 21.765625 -43.53125 16.648438 -43.53125 Z M 10.554688 -43.53125 "/></g></g></g><g fill="#000000" fill-opacity="1"><g transform="translate(171.667106, 72.880491)"><g><path d="M 2.503906 -43.53125 C 1.957031 -43.53125 1.632812 -43.203125 1.632812 -42.660156 L 1.632812 -37.21875 C 1.632812 -36.671875 1.957031 -36.347656 2.503906 -36.347656 L 8.816406 -36.347656 L 8.816406 -0.871094 C 8.816406 -0.273438 9.140625 0 9.683594 0 L 15.34375 0 C 15.941406 0 16.214844 -0.273438 16.214844 -0.871094 L 16.214844 -36.347656 L 22.527344 -36.347656 C 23.125 -36.347656 23.398438 -36.671875 23.398438 -37.21875 L 23.398438 -42.660156 C 23.398438 -43.203125 23.125 -43.53125 22.527344 -43.53125 Z M 2.503906 -43.53125 "/></g></g></g><g fill="#000000" fill-opacity="1"><g transform="translate(213.126303, 72.880491)"><g><path d="M 28.945312 0 C 29.601562 0 29.816406 -0.328125 29.710938 -0.925781 L 20.675781 -42.769531 C 20.566406 -43.3125 20.242188 -43.53125 19.75 -43.53125 L 12.1875 -43.53125 C 11.699219 -43.53125 11.371094 -43.3125 11.261719 -42.769531 L 2.230469 -0.925781 C 2.066406 -0.328125 2.339844 0 2.9375 0 L 8.761719 0 C 9.25 0 9.523438 -0.273438 9.632812 -0.761719 L 11.101562 -8.707031 L 20.785156 -8.707031 L 22.308594 -0.761719 C 22.417969 -0.273438 22.691406 0 23.179688 0 Z M 19.425781 -15.019531 L 12.460938 -15.019531 L 15.941406 -34.007812 Z M 19.425781 -15.019531 "/></g></g></g><g fill="#000000" fill-opacity="1"><g transform="translate(261.440547, 72.880491)"><g><path d="M 2.71875 -7.835938 C 2.71875 -2.71875 5.441406 0 10.554688 0 L 17.738281 0 C 22.796875 0 25.574219 -2.71875 25.574219 -7.835938 L 25.574219 -22.960938 C 25.574219 -23.558594 25.246094 -23.832031 24.703125 -23.832031 L 15.5625 -23.832031 C 14.964844 -23.832031 14.691406 -23.558594 14.691406 -22.960938 L 14.691406 -17.519531 C 14.691406 -16.976562 14.964844 -16.648438 15.5625 -16.648438 L 18.390625 -16.648438 L 18.390625 -9.359375 C 18.390625 -7.890625 17.628906 -7.183594 16.214844 -7.183594 L 12.296875 -7.183594 C 10.882812 -7.183594 10.121094 -7.890625 10.121094 -9.359375 L 10.121094 -34.171875 C 10.121094 -35.585938 10.828125 -36.347656 12.296875 -36.347656 L 16.214844 -36.347656 C 17.628906 -36.347656 18.390625 -35.585938 18.390625 -34.171875 L 18.390625 -30.035156 C 18.390625 -29.492188 18.664062 -29.164062 19.261719 -29.164062 L 24.703125 -29.164062 C 25.246094 -29.164062 25.574219 -29.492188 25.574219 -30.035156 L 25.574219 -35.695312 C 25.574219 -40.808594 22.796875 -43.53125 17.738281 -43.53125 L 10.554688 -43.53125 C 5.441406 -43.53125 2.71875 -40.808594 2.71875 -35.695312 Z M 2.71875 -7.835938 "/></g></g></g><g fill="#000000" fill-opacity="1"><g transform="translate(306.164056, 72.880491)"><g><path d="M 24.429688 -42.660156 C 24.429688 -43.203125 24.214844 -43.53125 23.558594 -43.53125 L 3.535156 -43.53125 C 3.046875 -43.53125 2.71875 -43.203125 2.71875 -42.660156 L 2.71875 -0.871094 C 2.71875 -0.328125 3.046875 0 3.535156 0 L 23.558594 0 C 24.214844 0 24.429688 -0.328125 24.429688 -0.871094 L 24.429688 -6.3125 C 24.429688 -6.910156 24.214844 -7.183594 23.558594 -7.183594 L 9.957031 -7.183594 L 9.957031 -18.171875 L 20.351562 -18.171875 C 20.894531 -18.171875 21.222656 -18.5 21.222656 -19.097656 L 21.222656 -24.484375 C 21.222656 -25.085938 20.894531 -25.410156 20.351562 -25.410156 L 9.957031 -25.410156 L 9.957031 -36.292969 L 23.558594 -36.292969 C 24.214844 -36.292969 24.429688 -36.671875 24.429688 -37.21875 Z M 24.429688 -42.660156 "/></g></g></g></svg>