<svg xmlns="http://www.w3.org/2000/svg" xmlns:xlink="http://www.w3.org/1999/xlink" width="500" zoomAndPan="magnify" viewBox="0 0 375 374.999991" height="500" preserveAspectRatio="xMidYMid meet" version="1.0"><defs><clipPath id="80f879d673"><path d="M 0 26.164062 L 375 26.164062 L 375 348.664062 L 0 348.664062 Z M 0 26.164062 " clip-rule="nonzero"/></clipPath></defs><g clip-path="url(#80f879d673)"><path fill="#000000" d="M 348.671875 84.476562 L 348.671875 54.167969 C 348.671875 53.734375 348.5 53.386719 348.238281 53.128906 C 347.980469 52.867188 347.632812 52.695312 347.199219 52.695312 L 86.953125 52.695312 C 86.519531 52.695312 86.171875 52.867188 85.914062 53.128906 C 85.652344 53.386719 85.480469 53.734375 85.480469 54.167969 L 85.480469 72.960938 L 59.152344 72.960938 L 59.152344 54.167969 C 59.152344 46.546875 62.269531 39.53125 67.292969 34.507812 C 72.316406 29.484375 79.242188 26.367188 86.953125 26.367188 L 347.199219 26.367188 C 354.820312 26.367188 361.835938 29.484375 366.859375 34.507812 C 371.882812 39.53125 375 46.457031 375 54.167969 L 375 84.476562 C 375 92.097656 371.882812 99.113281 366.859375 104.136719 L 366.773438 104.136719 C 361.75 109.160156 354.820312 112.277344 347.199219 112.277344 L 85.480469 112.277344 L 85.480469 134.710938 C 85.480469 134.96875 85.480469 135.140625 85.566406 135.230469 L 85.566406 135.316406 C 85.566406 135.402344 85.738281 135.574219 85.914062 135.75 C 105.570312 156.101562 125.230469 176.453125 144.804688 196.804688 L 149.828125 202 L 151.472656 203.734375 C 151.644531 203.90625 151.820312 204.078125 151.90625 204.078125 C 151.992188 204.078125 152.164062 204.078125 152.511719 204.078125 L 295.84375 204.078125 C 296.277344 204.078125 296.621094 203.90625 296.882812 203.648438 C 297.140625 203.386719 297.316406 203.039062 297.316406 202.609375 L 297.316406 172.296875 C 297.316406 171.863281 297.140625 171.515625 296.882812 171.257812 C 296.621094 170.996094 296.277344 170.824219 295.84375 170.824219 L 152.339844 170.824219 C 151.992188 170.824219 151.820312 170.824219 151.730469 170.824219 C 151.644531 170.824219 151.472656 170.996094 151.300781 171.167969 L 144.628906 177.839844 L 126.445312 158.957031 L 132.851562 152.636719 C 135.449219 150.039062 138.480469 147.960938 141.859375 146.660156 C 145.238281 145.273438 148.789062 144.582031 152.425781 144.582031 L 295.929688 144.582031 C 303.550781 144.582031 310.566406 147.699219 315.589844 152.722656 C 320.613281 157.746094 323.730469 164.675781 323.730469 172.382812 L 323.730469 202.695312 C 323.730469 210.316406 320.613281 217.332031 315.589844 222.351562 L 315.503906 222.351562 C 310.480469 227.375 303.550781 230.496094 295.929688 230.496094 L 152.597656 230.496094 C 148.789062 230.496094 145.148438 229.714844 141.773438 228.328125 C 138.394531 226.855469 135.363281 224.777344 132.679688 222.007812 L 116.917969 205.726562 L 86 236.382812 C 85.824219 236.558594 85.738281 236.730469 85.652344 236.816406 C 85.652344 236.902344 85.566406 237.078125 85.566406 237.421875 L 85.566406 249.894531 L 59.238281 249.894531 L 59.238281 237.421875 C 59.238281 233.699219 59.929688 230.148438 61.316406 226.769531 C 62.703125 223.480469 64.78125 220.449219 67.464844 217.761719 L 98.644531 186.757812 L 67.03125 154.023438 C 64.519531 151.425781 62.527344 148.480469 61.230469 145.1875 C 59.929688 141.898438 59.238281 138.433594 59.238281 134.796875 L 59.238281 112.363281 L 27.800781 112.363281 C 27.367188 112.363281 27.019531 112.539062 26.761719 112.796875 C 26.5 113.058594 26.328125 113.402344 26.328125 113.835938 L 26.328125 261.324219 C 26.328125 261.757812 26.5 262.105469 26.761719 262.363281 C 27.019531 262.625 27.367188 262.796875 27.800781 262.796875 L 347.285156 262.796875 C 354.90625 262.796875 361.921875 265.914062 366.945312 270.9375 C 371.96875 275.960938 375.085938 282.890625 375.085938 290.597656 L 375.085938 320.910156 C 375.085938 328.53125 371.96875 335.546875 366.945312 340.570312 C 361.921875 345.59375 354.996094 348.710938 347.285156 348.710938 L 87.039062 348.710938 C 79.417969 348.710938 72.402344 345.59375 67.378906 340.570312 C 62.355469 335.546875 59.238281 328.617188 59.238281 320.910156 L 59.238281 289.125 L 27.800781 289.125 C 20.179688 289.125 13.25 286.007812 8.226562 280.984375 L 8.140625 280.984375 C 3.117188 275.960938 0 269.035156 0 261.324219 L 0 113.835938 C 0 106.214844 3.117188 99.199219 8.140625 94.179688 C 13.164062 89.15625 20.09375 86.035156 27.800781 86.035156 L 347.285156 86.035156 C 347.71875 86.035156 348.066406 85.863281 348.324219 85.605469 C 348.585938 85.34375 348.757812 84.996094 348.757812 84.566406 Z M 85.480469 289.039062 L 85.480469 320.824219 C 85.480469 321.257812 85.652344 321.601562 85.914062 321.863281 C 86.171875 322.121094 86.519531 322.296875 86.953125 322.296875 L 347.199219 322.296875 C 347.632812 322.296875 347.980469 322.121094 348.238281 321.863281 C 348.5 321.601562 348.671875 321.257812 348.671875 320.824219 L 348.671875 290.511719 C 348.671875 290.078125 348.5 289.730469 348.238281 289.472656 C 347.980469 289.210938 347.632812 289.039062 347.199219 289.039062 Z M 85.480469 289.039062 " fill-opacity="1" fill-rule="evenodd"/></g></svg>